<svg version="1.2" xmlns="http://www.w3.org/2000/svg" viewBox="0 0 243 93" width="243" height="93"><style>.a{fill:#5271ff}</style><path fill-rule="evenodd" class="a" d="m76.3 36h-12.9l-2.5 7.5h-8l13.1-34.7h9.2l12.3 34.7h-8.6zm-2.1-6.2l-4.4-13.1-4.4 13.1z"/><path fill-rule="evenodd" class="a" d="m114.9 6.3v30.3q0 2.4-1.8 4.2-1.7 1.7-4.5 2.6-2.8 0.8-6 0.8-6.7 0-10.3-3.1-3.7-3.2-3.7-11 0-6.6 3.2-10.2 3.2-3.6 9.4-3.6 3.7 0 6 1.4v-11.4zm-7.7 17.3q-2.1-1-4.1-1-3.5 0-5.1 1.7-1.6 1.8-1.6 6 0 3.6 1.5 5.6 1.5 1.8 5.1 1.8 1.9 0 3-0.5 1.2-0.5 1.2-1.4z"/><path fill-rule="evenodd" class="a" d="m145 6.3v30.3q0 2.4-1.8 4.2-1.7 1.7-4.5 2.6-2.8 0.8-6 0.8-6.7 0-10.3-3.1-3.7-3.2-3.7-11 0-6.6 3.2-10.2 3.2-3.6 9.4-3.6 3.7 0 6 1.4v-11.4zm-7.7 17.3q-2.1-1-4.1-1-3.5 0-5.1 1.7-1.6 1.8-1.6 6 0 3.6 1.5 5.6 1.5 1.8 5.1 1.8 1.9 0 3-0.5 1.2-0.5 1.2-1.4z"/><path class="a" d="m150.3 19.9q0.7-0.7 2.7-1.5 1.9-0.8 4.4-1.4 2.4-0.6 4.6-0.6 4.3 0 6 1.3v5.6q-2.1-0.4-6-0.4-2.4 0-4 0.2v20.4h-7.7z"/><path fill-rule="evenodd" class="a" d="m182.6 16.3q12.3 0 12.2 16h-17.4q1 5.5 7.3 5.5 2 0 3.8-0.6 1.8-0.5 3.9-1.4v6.7q-4.2 1.7-9.5 1.7-4 0-7.1-1.6-3-1.6-4.7-4.7-1.6-3.1-1.6-7.2 0-6.9 3.4-10.7 3.4-3.7 9.7-3.7zm-0.3 5.9q-4.2 0-4.9 5.2h9.7q-0.4-2.8-1.5-4-1.1-1.2-3.3-1.2z"/><path class="a" d="m206.4 44.2q-2.5 0-4.4-0.5-1.8-0.4-4.1-1.4v-6.8q4.2 3.2 8.8 3.2 1.8 0 2.6-0.6 0.8-0.6 0.8-1.7 0-1.2-1.3-1.7-1.3-0.6-4.1-1.3-3.1-0.6-5-2.5-2-1.8-2-5.4 0-3.1 1.6-5.1 1.6-2 3.9-2.9 2.4-0.9 4.9-0.9 3.1 0 5.1 0.6 2 0.5 3.8 1.7v6q-2.6-1.4-4.1-2-1.4-0.7-3.4-0.7-1.9 0-2.8 0.7-1 0.6-1 1.6 0 1.3 1.1 1.9 1 0.6 3.3 1.2 2.6 0.7 4.1 1.4 1.5 0.6 2.7 2.2 1.2 1.6 1.2 4.5-0.1 4.4-3.4 6.5-3.2 2-8.3 2z"/><path class="a" d="m229.9 44.2q-2.5 0-4.4-0.5-1.8-0.4-4.1-1.4v-6.8q4.2 3.2 8.8 3.2 1.8 0 2.6-0.6 0.8-0.6 0.8-1.7 0-1.2-1.3-1.7-1.3-0.6-4.1-1.3-3.1-0.6-5-2.5-2-1.8-2-5.4 0-3.1 1.6-5.1 1.6-2 3.9-2.9 2.4-0.9 4.9-0.9 3.1 0 5.1 0.6 2 0.5 3.8 1.7v6q-2.6-1.4-4.1-2-1.4-0.7-3.4-0.7-1.9 0-2.8 0.7-1 0.6-0.9 1.6 0 1.3 1 1.9 1 0.6 3.3 1.2 2.6 0.7 4.1 1.4 1.5 0.6 2.7 2.2 1.2 1.6 1.2 4.5-0.1 4.4-3.4 6.5-3.2 2-8.3 2z"/><path fill-rule="evenodd" class="a" d="m129.8 82.5h-12.9l-2.5 7.5h-8l13.1-34.7h9.2l12.3 34.7h-8.6zm-2.1-6.2l-4.4-13.1-4.4 13.1z"/><path class="a" d="m155.9 90.6q-3.9 0-7-1.5-3.1-1.5-5-4.5-1.8-3.1-1.8-7.4 0-7 3.7-10.7 3.8-3.6 10-3.6 2.2 0 4.5 0.5 2.2 0.4 3.9 1.2v6.6q-2.1-0.9-3.8-1.4-1.7-0.5-3.3-0.5-3.5 0-5.4 1.7-1.9 1.7-1.9 5.3 0 4 1.8 5.9 1.8 1.9 5.8 1.9 3.1 0 6.9-2v6.6q-1.9 1-3.9 1.4-2 0.5-4.5 0.5z"/><path fill-rule="evenodd" class="a" d="m179.7 62.8q12.4 0 12.2 16h-17.4q1 5.5 7.4 5.5 1.9 0 3.8-0.6 1.8-0.5 3.9-1.4v6.7q-4.3 1.7-9.6 1.7-4 0-7-1.6-3-1.6-4.7-4.7-1.7-3.1-1.7-7.2 0-6.9 3.4-10.7 3.4-3.7 9.7-3.7zm-0.3 5.9q-4.1 0-4.9 5.2h9.7q-0.3-2.8-1.5-4-1.1-1.2-3.3-1.2z"/><path class="a" d="m42.4 31.7c-7.3-9.8-28.8-14.9-34.5-18.3-5.8-3.4-5.4-12.1-5.4-12.1 0 0 28.8 15.2 31.7 17.4 2.8 2.2 5 6.3 8.2 13z"/><path class="a" d="m46.3 40.2c-6.7-7.6-25.1-10.4-30.2-12.8-5.1-2.4-5.1-9.4-5.1-9.4 0 0 25 10.6 27.6 12.2 2.6 1.5 4.6 4.7 7.7 10z"/><path class="a" d="m50.1 47.2c-6-5.6-22.9-7.5-27.5-9.2-4.6-1.7-4.6-7-4.6-7 0 0 22.9 7.6 25.2 8.8 2.3 1.2 4.2 3.5 6.9 7.4z"/></svg>