<svg xmlns="http://www.w3.org/2000/svg" xmlns:xlink="http://www.w3.org/1999/xlink" width="500" zoomAndPan="magnify" viewBox="0 0 375 374.999991" height="500" preserveAspectRatio="xMidYMid meet" version="1.0"><defs><g/></defs><g fill="#38b6ff" fill-opacity="1"><g transform="translate(138.694221, 212.592936)"><g><path d="M 14.441406 -67.457031 L 14.078125 -67.457031 C 13.894531 -67.367188 13.800781 -67.367188 13.984375 -67.457031 L 14.078125 -67.457031 L 13.621094 -67.367188 C 13.253906 -67.273438 12.980469 -67.183594 12.796875 -67.183594 C 12.429688 -67 12.15625 -66.816406 11.792969 -66.636719 C 11.425781 -66.359375 11.152344 -66.085938 10.878906 -65.8125 C 10.601562 -65.539062 10.421875 -65.265625 10.238281 -64.898438 L 9.871094 -63.800781 C 9.78125 -54.660156 9.78125 -47.804688 9.78125 -43.328125 C 9.597656 -42.320312 9.324219 -41.316406 8.867188 -40.21875 C 8.410156 -39.121094 7.222656 -38.574219 5.394531 -38.574219 L 0 -38.574219 C -2.011719 -38.023438 -3.015625 -36.652344 -3.015625 -34.277344 C -3.109375 -34.1875 -3.109375 -34.09375 -3.109375 -34.003906 C -3.109375 -31.71875 -2.285156 -30.164062 -0.546875 -29.25 L 5.484375 -29.25 C 6.214844 -29.25 7.222656 -28.976562 8.316406 -28.425781 C 9.324219 -27.878906 9.78125 -26.78125 9.78125 -25.226562 L 9.78125 -4.203125 C 9.78125 -3.929688 9.78125 -3.746094 9.871094 -3.65625 C 10.054688 -3.289062 10.144531 -2.925781 10.328125 -2.558594 C 10.511719 -2.195312 10.695312 -1.828125 10.96875 -1.554688 L 11.882812 -0.824219 C 12.25 -0.640625 12.613281 -0.457031 12.980469 -0.367188 C 13.34375 -0.183594 13.710938 -0.0898438 14.078125 -0.0898438 C 14.441406 -0.0898438 14.898438 -0.0898438 15.265625 -0.183594 C 23.492188 -0.0898438 29.617188 -0.0898438 33.730469 -0.0898438 C 36.652344 -0.0898438 39.304688 -0.640625 41.773438 -1.828125 C 44.148438 -2.925781 46.160156 -4.480469 47.714844 -6.398438 C 49.269531 -8.226562 50.457031 -10.328125 51.1875 -12.613281 C 51.828125 -14.898438 52.191406 -17.183594 52.191406 -19.5625 C 52.191406 -21.847656 51.828125 -24.132812 51.097656 -26.507812 C 50.363281 -28.703125 49.175781 -30.804688 47.714844 -32.632812 C 47.257812 -33.089844 46.707031 -33.453125 46.160156 -33.820312 L 44.515625 -34.917969 C 44.878906 -35.28125 45.246094 -35.648438 45.703125 -36.015625 C 46.070312 -36.289062 46.433594 -36.652344 46.707031 -37.109375 C 47.988281 -39.03125 48.8125 -41.132812 49.269531 -43.328125 C 49.726562 -45.519531 49.816406 -47.714844 49.632812 -49.90625 C 49.175781 -54.296875 47.257812 -58.316406 43.964844 -61.972656 C 40.675781 -65.628906 36.289062 -67.457031 30.894531 -67.457031 Z M 23.949219 -38.574219 C 21.847656 -38.574219 20.476562 -39.214844 19.925781 -40.402344 C 19.378906 -41.5 19.105469 -42.414062 19.105469 -43.050781 L 19.105469 -53.289062 C 19.105469 -54.019531 19.285156 -55.027344 19.652344 -56.304688 C 19.925781 -57.402344 21.480469 -58.042969 24.222656 -58.042969 L 30.894531 -58.042969 C 33.910156 -58.042969 36.195312 -57.128906 37.75 -55.390625 C 39.214844 -53.5625 40.035156 -51.371094 40.402344 -48.902344 L 40.402344 -47.714844 C 40.402344 -46.800781 40.308594 -46.070312 40.21875 -45.335938 C 39.851562 -44.148438 39.488281 -43.144531 38.9375 -42.230469 C 38.300781 -41.316406 37.566406 -40.492188 36.746094 -39.945312 C 35.832031 -39.304688 34.734375 -38.847656 33.273438 -38.574219 Z M 24.039062 -9.414062 C 23.308594 -9.414062 22.304688 -9.78125 21.023438 -10.695312 C 19.742188 -11.425781 19.105469 -12.886719 19.105469 -14.992188 L 19.105469 -24.769531 C 19.105469 -25.503906 19.285156 -26.417969 19.835938 -27.511719 C 20.382812 -28.609375 21.753906 -29.25 23.949219 -29.25 L 34.003906 -29.25 C 34.003906 -29.25 34.277344 -29.25 34.734375 -29.433594 C 34.460938 -29.339844 34.1875 -29.339844 33.910156 -29.339844 C 33.546875 -29.25 33.546875 -29.25 33.730469 -29.25 L 34.1875 -29.25 C 34.1875 -29.25 34.460938 -29.25 34.917969 -29.339844 C 36.015625 -29.339844 37.109375 -29.066406 38.117188 -28.609375 C 39.03125 -28.0625 39.851562 -27.421875 40.585938 -26.597656 C 41.316406 -25.683594 41.863281 -24.679688 42.230469 -23.492188 C 42.59375 -22.210938 42.871094 -20.839844 42.871094 -19.5625 C 42.871094 -18.191406 42.6875 -16.910156 42.320312 -15.628906 C 41.863281 -14.351562 41.316406 -13.253906 40.585938 -12.339844 C 39.761719 -11.425781 38.847656 -10.695312 37.84375 -10.238281 C 36.746094 -9.6875 35.375 -9.414062 33.730469 -9.414062 Z M -6.398438 -24.769531 L -6.855469 -24.769531 L -7.039062 -24.589844 C -7.128906 -24.589844 -7.222656 -24.496094 -7.222656 -24.496094 C -7.3125 -24.40625 -7.3125 -24.3125 -7.3125 -24.3125 C -7.402344 -24.132812 -7.402344 -24.039062 -7.402344 -24.039062 C -7.496094 -23.949219 -7.496094 -23.855469 -7.496094 -23.855469 C -7.496094 -23.675781 -7.496094 -23.582031 -7.402344 -23.582031 C -7.402344 -23.492188 -7.402344 -23.398438 -7.3125 -23.398438 C -7.3125 -23.21875 -7.3125 -23.125 -7.222656 -23.125 C -7.222656 -23.125 -7.128906 -23.035156 -7.039062 -23.035156 C -6.945312 -22.941406 -6.855469 -22.941406 -6.765625 -22.941406 C -6.765625 -22.851562 -6.671875 -22.851562 -6.582031 -22.851562 L 0.367188 -22.851562 C 1.097656 -22.851562 1.738281 -22.761719 2.101562 -22.578125 C 2.375 -22.304688 2.652344 -22.027344 2.832031 -21.753906 C 3.015625 -21.390625 3.109375 -21.023438 3.109375 -20.65625 C 3.109375 -20.199219 3.199219 -19.835938 3.199219 -19.46875 L 3.199219 29.066406 C 3.199219 29.160156 3.289062 29.25 3.289062 29.25 L 3.472656 29.433594 C 3.472656 29.523438 3.472656 29.617188 3.566406 29.617188 C 3.65625 29.707031 3.746094 29.707031 3.839844 29.707031 C 3.839844 29.796875 3.929688 29.796875 4.023438 29.796875 L 4.296875 29.796875 C 4.296875 29.796875 4.386719 29.707031 4.480469 29.707031 C 4.570312 29.707031 4.660156 29.617188 4.753906 29.523438 C 4.753906 29.523438 4.84375 29.523438 4.9375 29.433594 C 4.9375 29.433594 4.9375 29.339844 5.027344 29.160156 C 5.027344 29.160156 5.027344 29.066406 5.117188 28.976562 L 5.117188 -19.46875 C 5.117188 -19.835938 5.027344 -20.292969 5.027344 -20.933594 C 4.9375 -21.480469 4.753906 -22.027344 4.480469 -22.667969 C 4.113281 -23.21875 3.65625 -23.675781 3.015625 -24.132812 C 2.285156 -24.496094 1.460938 -24.769531 0.457031 -24.769531 Z M -4.9375 -73.855469 C -5.027344 -73.855469 -5.027344 -73.855469 -5.027344 -73.949219 C -5.117188 -73.949219 -5.210938 -73.855469 -5.210938 -73.855469 L -5.394531 -73.855469 C -5.574219 -73.765625 -5.667969 -73.765625 -5.667969 -73.765625 L -5.851562 -73.582031 C -5.941406 -73.492188 -5.941406 -73.398438 -5.941406 -73.398438 C -6.03125 -73.214844 -6.03125 -73.125 -6.03125 -73.125 L -6.03125 -72.667969 C -6.03125 -72.578125 -5.941406 -72.484375 -5.941406 -72.394531 L -5.757812 -72.210938 C -5.757812 -72.210938 -5.667969 -72.121094 -5.574219 -72.121094 C -5.574219 -72.027344 -5.484375 -72.027344 -5.300781 -72.027344 C -5.300781 -71.9375 -5.210938 -71.9375 -5.117188 -71.9375 C -5.027344 -71.9375 -4.9375 -72.027344 -4.84375 -72.027344 L 35.738281 -72.027344 C 40.128906 -71.296875 43.601562 -69.835938 46.25 -67.640625 C 48.8125 -65.265625 50.820312 -62.703125 52.191406 -59.871094 C 53.5625 -56.945312 54.386719 -53.929688 54.660156 -51.003906 C 54.84375 -48.078125 54.84375 -45.703125 54.660156 -44.058594 L 54.660156 -43.875 C 54.660156 -43.691406 54.660156 -43.601562 54.753906 -43.601562 C 54.753906 -43.507812 54.753906 -43.417969 54.84375 -43.417969 L 55.210938 -43.050781 C 55.210938 -43.050781 55.300781 -42.960938 55.390625 -42.960938 L 55.941406 -42.960938 C 55.941406 -42.960938 56.03125 -43.050781 56.125 -43.050781 L 56.304688 -43.234375 L 56.488281 -43.417969 C 56.488281 -43.417969 56.488281 -43.507812 56.582031 -43.691406 L 56.582031 -43.875 C 56.761719 -44.789062 56.855469 -45.792969 56.855469 -47.074219 C 56.855469 -48.355469 56.761719 -49.726562 56.582031 -51.371094 C 56.214844 -54.386719 55.390625 -57.496094 53.929688 -60.695312 C 52.46875 -63.800781 50.363281 -66.636719 47.441406 -69.195312 C 44.515625 -71.664062 40.585938 -73.214844 35.832031 -73.855469 L 35.738281 -73.949219 C 35.738281 -73.855469 35.648438 -73.855469 35.558594 -73.855469 Z M -4.9375 -73.855469 "/></g></g></g><g fill="#38b6ff" fill-opacity="1"><g transform="translate(198.655216, 212.592936)"><g><path d="M 47.347656 -57.675781 C 46.527344 -59.324219 44.699219 -61.332031 41.957031 -63.710938 C 39.121094 -66.085938 35.191406 -67.273438 30.253906 -67.273438 C 27.789062 -67.273438 25.410156 -66.910156 23.035156 -66.179688 C 20.65625 -65.445312 18.464844 -64.351562 16.453125 -62.886719 C 14.441406 -61.425781 12.707031 -59.503906 11.425781 -57.21875 C 9.964844 -54.84375 9.324219 -52.191406 9.324219 -49.359375 L 9.324219 -18.371094 C 9.324219 -14.808594 10.144531 -11.792969 11.792969 -9.230469 C 13.4375 -6.671875 15.355469 -4.660156 17.550781 -3.382812 C 19.5625 -2.101562 21.570312 -1.28125 23.582031 -0.824219 C 25.59375 -0.273438 27.421875 0 29.066406 0 L 29.980469 0 C 30.074219 0 30.347656 0 30.710938 -0.0898438 C 30.53125 0 30.253906 0 30.074219 0 C 29.890625 0 29.796875 0 29.890625 0 L 30.4375 0 C 30.4375 0 30.710938 0 31.078125 -0.0898438 C 43.234375 0 52.375 0 58.5 0 C 60.328125 -0.457031 61.332031 -1.917969 61.332031 -4.386719 L 61.332031 -4.660156 C 61.242188 -7.222656 60.328125 -8.773438 58.5 -9.324219 L 29.707031 -9.324219 C 29.523438 -9.324219 29.339844 -9.230469 28.976562 -9.230469 L 29.707031 -9.230469 C 29.980469 -9.230469 30.074219 -9.324219 29.890625 -9.324219 L 29.433594 -9.324219 C 29.339844 -9.324219 29.066406 -9.230469 28.703125 -9.230469 C 28.335938 -9.230469 27.511719 -9.414062 26.234375 -9.78125 C 24.863281 -10.144531 23.582031 -10.601562 22.484375 -11.335938 C 21.296875 -12.066406 20.382812 -12.886719 19.742188 -13.894531 C 19.011719 -14.808594 18.648438 -16.363281 18.648438 -18.371094 L 18.648438 -49.359375 C 18.648438 -50.640625 18.921875 -51.734375 19.46875 -52.742188 C 20.019531 -53.65625 20.839844 -54.570312 21.9375 -55.390625 C 23.035156 -56.125 24.3125 -56.761719 25.867188 -57.3125 C 27.332031 -57.675781 28.792969 -57.953125 30.253906 -57.953125 C 33.363281 -57.953125 35.558594 -57.3125 36.835938 -56.125 C 37.933594 -54.933594 38.757812 -53.929688 39.304688 -53.015625 C 39.304688 -52.832031 39.394531 -52.648438 39.578125 -52.46875 C 39.578125 -52.285156 39.761719 -52.101562 39.945312 -52.011719 C 41.589844 -50.914062 43.328125 -51.003906 45.335938 -52.191406 C 47.257812 -53.289062 47.898438 -55.117188 47.347656 -57.675781 Z M 3.472656 -107.21875 C 3.289062 -107.21875 3.199219 -107.3125 3.199219 -107.3125 L 2.832031 -107.3125 C 2.742188 -107.3125 2.742188 -107.21875 2.742188 -107.21875 C 2.652344 -107.21875 2.558594 -107.128906 2.46875 -107.128906 L 2.285156 -106.945312 C 2.285156 -106.855469 2.195312 -106.761719 2.195312 -106.761719 C 2.101562 -106.671875 2.101562 -106.578125 2.101562 -106.578125 L 2.101562 -15.628906 C 2.285156 -10.878906 3.472656 -7.128906 5.757812 -4.203125 C 7.953125 -1.1875 10.421875 1.097656 13.34375 2.742188 C 16.179688 4.386719 19.011719 5.484375 21.847656 6.03125 C 24.222656 6.582031 26.140625 6.765625 27.695312 6.765625 C 27.878906 6.765625 28.152344 6.765625 28.425781 6.671875 L 49.90625 6.671875 C 49.90625 6.671875 50 6.671875 50.089844 6.582031 C 50.089844 6.582031 50.183594 6.582031 50.273438 6.488281 L 50.457031 6.308594 C 50.457031 6.308594 50.546875 6.214844 50.546875 6.03125 C 50.546875 6.03125 50.640625 5.941406 50.640625 5.851562 L 50.640625 5.574219 C 50.546875 5.574219 50.546875 5.484375 50.546875 5.394531 C 50.457031 5.300781 50.457031 5.210938 50.457031 5.117188 C 50.363281 5.117188 50.273438 5.027344 50.273438 5.027344 L 50.089844 4.84375 L 49.816406 4.84375 C 49.726562 4.84375 49.632812 4.753906 49.542969 4.753906 L 28.335938 4.753906 L 28.246094 4.84375 C 26.964844 4.9375 24.953125 4.753906 22.304688 4.203125 C 19.5625 3.65625 16.910156 2.652344 14.351562 1.097656 C 11.609375 -0.367188 9.324219 -2.375 7.3125 -5.117188 C 5.300781 -7.769531 4.203125 -11.242188 4.023438 -15.628906 L 4.023438 -106.488281 C 3.929688 -106.578125 3.929688 -106.671875 3.929688 -106.761719 C 3.929688 -106.761719 3.839844 -106.855469 3.839844 -106.945312 L 3.65625 -107.128906 C 3.566406 -107.128906 3.472656 -107.21875 3.472656 -107.21875 Z M 3.472656 -107.21875 "/></g></g></g><g fill="#ffffff" fill-opacity="1"><g transform="translate(148.916347, 238.062407)"><g><path d="M 1.625 0 L 1.625 -11.8125 L 5.125 -11.8125 C 5.726562 -11.8125 6.28125 -11.753906 6.78125 -11.640625 C 7.28125 -11.535156 7.707031 -11.367188 8.0625 -11.140625 C 8.414062 -10.910156 8.691406 -10.613281 8.890625 -10.25 C 9.085938 -9.882812 9.1875 -9.441406 9.1875 -8.921875 C 9.1875 -8.335938 9.035156 -7.804688 8.734375 -7.328125 C 8.441406 -6.859375 8.015625 -6.535156 7.453125 -6.359375 L 7.453125 -6.28125 C 8.171875 -6.144531 8.75 -5.84375 9.1875 -5.375 C 9.632812 -4.914062 9.859375 -4.273438 9.859375 -3.453125 C 9.859375 -2.878906 9.75 -2.375 9.53125 -1.9375 C 9.320312 -1.507812 9.019531 -1.148438 8.625 -0.859375 C 8.226562 -0.578125 7.753906 -0.363281 7.203125 -0.21875 C 6.648438 -0.0703125 6.039062 0 5.375 0 Z M 3.109375 -6.78125 L 4.859375 -6.78125 C 5.867188 -6.78125 6.59375 -6.953125 7.03125 -7.296875 C 7.476562 -7.648438 7.703125 -8.128906 7.703125 -8.734375 C 7.703125 -9.410156 7.46875 -9.894531 7 -10.1875 C 6.539062 -10.476562 5.851562 -10.625 4.9375 -10.625 L 3.109375 -10.625 Z M 3.109375 -1.1875 L 5.171875 -1.1875 C 6.191406 -1.1875 6.984375 -1.375 7.546875 -1.75 C 8.109375 -2.132812 8.390625 -2.722656 8.390625 -3.515625 C 8.390625 -4.242188 8.113281 -4.78125 7.5625 -5.125 C 7.007812 -5.46875 6.210938 -5.640625 5.171875 -5.640625 L 3.109375 -5.640625 Z M 3.109375 -1.1875 "/></g></g></g><g fill="#ffffff" fill-opacity="1"><g transform="translate(159.49348, 238.062407)"><g><path d="M 1.46875 0 L 1.46875 -8.75 L 2.703125 -8.75 L 2.828125 -7.15625 L 2.875 -7.15625 C 3.175781 -7.707031 3.539062 -8.144531 3.96875 -8.46875 C 4.394531 -8.800781 4.859375 -8.96875 5.359375 -8.96875 C 5.710938 -8.96875 6.023438 -8.90625 6.296875 -8.78125 L 6.015625 -7.484375 C 5.867188 -7.535156 5.734375 -7.570312 5.609375 -7.59375 C 5.492188 -7.613281 5.347656 -7.625 5.171875 -7.625 C 4.796875 -7.625 4.40625 -7.472656 4 -7.171875 C 3.601562 -6.878906 3.253906 -6.359375 2.953125 -5.609375 L 2.953125 0 Z M 1.46875 0 "/></g></g></g><g fill="#ffffff" fill-opacity="1"><g transform="translate(165.73543, 238.062407)"><g><path d="M 1.625 3.765625 C 1.414062 3.765625 1.226562 3.75 1.0625 3.71875 C 0.894531 3.6875 0.738281 3.640625 0.59375 3.578125 L 0.875 2.40625 C 0.976562 2.4375 1.085938 2.460938 1.203125 2.484375 C 1.328125 2.515625 1.441406 2.53125 1.546875 2.53125 C 2.046875 2.53125 2.457031 2.351562 2.78125 2 C 3.101562 1.644531 3.351562 1.203125 3.53125 0.671875 L 3.71875 0.015625 L 0.21875 -8.75 L 1.75 -8.75 L 3.53125 -3.90625 C 3.65625 -3.519531 3.789062 -3.113281 3.9375 -2.6875 C 4.09375 -2.257812 4.238281 -1.84375 4.375 -1.4375 L 4.453125 -1.4375 C 4.578125 -1.832031 4.695312 -2.242188 4.8125 -2.671875 C 4.9375 -3.109375 5.0625 -3.519531 5.1875 -3.90625 L 6.75 -8.75 L 8.1875 -8.75 L 4.890625 0.71875 C 4.734375 1.15625 4.5625 1.554688 4.375 1.921875 C 4.1875 2.296875 3.957031 2.617188 3.6875 2.890625 C 3.425781 3.160156 3.125 3.375 2.78125 3.53125 C 2.445312 3.6875 2.0625 3.765625 1.625 3.765625 Z M 1.625 3.765625 "/></g></g></g><g fill="#ffffff" fill-opacity="1"><g transform="translate(174.135977, 238.062407)"><g><path d="M 3.484375 0.21875 C 2.753906 0.21875 2.144531 0.00390625 1.65625 -0.421875 C 1.175781 -0.859375 0.9375 -1.472656 0.9375 -2.265625 C 0.9375 -3.222656 1.359375 -3.957031 2.203125 -4.46875 C 3.054688 -4.976562 4.421875 -5.335938 6.296875 -5.546875 C 6.296875 -5.816406 6.269531 -6.082031 6.21875 -6.34375 C 6.164062 -6.613281 6.070312 -6.847656 5.9375 -7.046875 C 5.800781 -7.253906 5.617188 -7.421875 5.390625 -7.546875 C 5.160156 -7.671875 4.863281 -7.734375 4.5 -7.734375 C 4 -7.734375 3.523438 -7.632812 3.078125 -7.4375 C 2.628906 -7.25 2.234375 -7.035156 1.890625 -6.796875 L 1.3125 -7.828125 C 1.71875 -8.085938 2.210938 -8.34375 2.796875 -8.59375 C 3.390625 -8.84375 4.039062 -8.96875 4.75 -8.96875 C 5.820312 -8.96875 6.597656 -8.640625 7.078125 -7.984375 C 7.554688 -7.328125 7.796875 -6.453125 7.796875 -5.359375 L 7.796875 0 L 6.5625 0 L 6.4375 -1.046875 L 6.390625 -1.046875 C 5.972656 -0.691406 5.519531 -0.390625 5.03125 -0.140625 C 4.550781 0.0976562 4.035156 0.21875 3.484375 0.21875 Z M 3.921875 -0.96875 C 4.335938 -0.96875 4.734375 -1.066406 5.109375 -1.265625 C 5.484375 -1.460938 5.878906 -1.753906 6.296875 -2.140625 L 6.296875 -4.578125 C 5.566406 -4.472656 4.953125 -4.351562 4.453125 -4.21875 C 3.953125 -4.09375 3.550781 -3.9375 3.25 -3.75 C 2.945312 -3.570312 2.722656 -3.367188 2.578125 -3.140625 C 2.441406 -2.910156 2.375 -2.65625 2.375 -2.375 C 2.375 -1.875 2.523438 -1.515625 2.828125 -1.296875 C 3.128906 -1.078125 3.492188 -0.96875 3.921875 -0.96875 Z M 3.921875 -0.96875 "/></g></g></g><g fill="#ffffff" fill-opacity="1"><g transform="translate(183.202089, 238.062407)"><g><path d="M 1.46875 0 L 1.46875 -8.75 L 2.703125 -8.75 L 2.828125 -7.484375 L 2.875 -7.484375 C 3.300781 -7.910156 3.742188 -8.265625 4.203125 -8.546875 C 4.660156 -8.828125 5.195312 -8.96875 5.8125 -8.96875 C 6.738281 -8.96875 7.414062 -8.675781 7.84375 -8.09375 C 8.269531 -7.519531 8.484375 -6.671875 8.484375 -5.546875 L 8.484375 0 L 7 0 L 7 -5.34375 C 7 -6.175781 6.863281 -6.773438 6.59375 -7.140625 C 6.332031 -7.503906 5.914062 -7.6875 5.34375 -7.6875 C 4.882812 -7.6875 4.484375 -7.570312 4.140625 -7.34375 C 3.796875 -7.113281 3.398438 -6.78125 2.953125 -6.34375 L 2.953125 0 Z M 1.46875 0 "/></g></g></g><g fill="#ffffff" fill-opacity="1"><g transform="translate(193.041707, 238.062407)"><g/></g></g><g fill="#ffffff" fill-opacity="1"><g transform="translate(196.639374, 238.062407)"><g><path d="M 6.078125 0.21875 C 5.335938 0.21875 4.65625 0.0820312 4.03125 -0.1875 C 3.40625 -0.46875 2.859375 -0.867188 2.390625 -1.390625 C 1.929688 -1.910156 1.570312 -2.550781 1.3125 -3.3125 C 1.0625 -4.082031 0.9375 -4.945312 0.9375 -5.90625 C 0.9375 -6.851562 1.066406 -7.703125 1.328125 -8.453125 C 1.597656 -9.210938 1.960938 -9.851562 2.421875 -10.375 C 2.890625 -10.90625 3.441406 -11.3125 4.078125 -11.59375 C 4.722656 -11.882812 5.421875 -12.03125 6.171875 -12.03125 C 6.890625 -12.03125 7.519531 -11.878906 8.0625 -11.578125 C 8.613281 -11.285156 9.0625 -10.945312 9.40625 -10.5625 L 8.609375 -9.59375 C 8.296875 -9.925781 7.941406 -10.191406 7.546875 -10.390625 C 7.148438 -10.597656 6.695312 -10.703125 6.1875 -10.703125 C 5.625 -10.703125 5.113281 -10.59375 4.65625 -10.375 C 4.207031 -10.15625 3.816406 -9.835938 3.484375 -9.421875 C 3.160156 -9.003906 2.910156 -8.5 2.734375 -7.90625 C 2.566406 -7.320312 2.484375 -6.664062 2.484375 -5.9375 C 2.484375 -5.195312 2.566406 -4.53125 2.734375 -3.9375 C 2.910156 -3.34375 3.15625 -2.832031 3.46875 -2.40625 C 3.78125 -1.988281 4.160156 -1.664062 4.609375 -1.4375 C 5.066406 -1.207031 5.578125 -1.09375 6.140625 -1.09375 C 6.710938 -1.09375 7.210938 -1.207031 7.640625 -1.4375 C 8.078125 -1.675781 8.488281 -2.007812 8.875 -2.4375 L 9.703125 -1.5 C 9.234375 -0.957031 8.703125 -0.535156 8.109375 -0.234375 C 7.523438 0.0664062 6.847656 0.21875 6.078125 0.21875 Z M 6.078125 0.21875 "/></g></g></g><g fill="#ffffff" fill-opacity="1"><g transform="translate(206.910709, 238.062407)"><g><path d="M 4.875 0.21875 C 4.332031 0.21875 3.816406 0.117188 3.328125 -0.078125 C 2.847656 -0.285156 2.421875 -0.582031 2.046875 -0.96875 C 1.679688 -1.363281 1.382812 -1.847656 1.15625 -2.421875 C 0.9375 -2.992188 0.828125 -3.640625 0.828125 -4.359375 C 0.828125 -5.085938 0.9375 -5.734375 1.15625 -6.296875 C 1.382812 -6.867188 1.679688 -7.351562 2.046875 -7.75 C 2.421875 -8.15625 2.847656 -8.457031 3.328125 -8.65625 C 3.816406 -8.863281 4.332031 -8.96875 4.875 -8.96875 C 5.414062 -8.96875 5.925781 -8.863281 6.40625 -8.65625 C 6.894531 -8.457031 7.328125 -8.15625 7.703125 -7.75 C 8.078125 -7.351562 8.375 -6.867188 8.59375 -6.296875 C 8.8125 -5.734375 8.921875 -5.085938 8.921875 -4.359375 C 8.921875 -3.640625 8.8125 -2.992188 8.59375 -2.421875 C 8.375 -1.847656 8.078125 -1.363281 7.703125 -0.96875 C 7.328125 -0.582031 6.894531 -0.285156 6.40625 -0.078125 C 5.925781 0.117188 5.414062 0.21875 4.875 0.21875 Z M 4.875 -1.015625 C 5.25 -1.015625 5.59375 -1.09375 5.90625 -1.25 C 6.21875 -1.414062 6.484375 -1.644531 6.703125 -1.9375 C 6.921875 -2.226562 7.085938 -2.578125 7.203125 -2.984375 C 7.328125 -3.390625 7.390625 -3.847656 7.390625 -4.359375 C 7.390625 -4.859375 7.328125 -5.316406 7.203125 -5.734375 C 7.085938 -6.148438 6.921875 -6.503906 6.703125 -6.796875 C 6.484375 -7.097656 6.21875 -7.328125 5.90625 -7.484375 C 5.59375 -7.648438 5.25 -7.734375 4.875 -7.734375 C 4.5 -7.734375 4.15625 -7.648438 3.84375 -7.484375 C 3.539062 -7.328125 3.273438 -7.097656 3.046875 -6.796875 C 2.828125 -6.503906 2.65625 -6.148438 2.53125 -5.734375 C 2.414062 -5.316406 2.359375 -4.859375 2.359375 -4.359375 C 2.359375 -3.847656 2.414062 -3.390625 2.53125 -2.984375 C 2.65625 -2.578125 2.828125 -2.226562 3.046875 -1.9375 C 3.273438 -1.644531 3.539062 -1.414062 3.84375 -1.25 C 4.15625 -1.09375 4.5 -1.015625 4.875 -1.015625 Z M 4.875 -1.015625 "/></g></g></g><g fill="#ffffff" fill-opacity="1"><g transform="translate(216.660377, 238.062407)"><g><path d="M 1.46875 0 L 1.46875 -8.75 L 2.703125 -8.75 L 2.828125 -7.15625 L 2.875 -7.15625 C 3.175781 -7.707031 3.539062 -8.144531 3.96875 -8.46875 C 4.394531 -8.800781 4.859375 -8.96875 5.359375 -8.96875 C 5.710938 -8.96875 6.023438 -8.90625 6.296875 -8.78125 L 6.015625 -7.484375 C 5.867188 -7.535156 5.734375 -7.570312 5.609375 -7.59375 C 5.492188 -7.613281 5.347656 -7.625 5.171875 -7.625 C 4.796875 -7.625 4.40625 -7.472656 4 -7.171875 C 3.601562 -6.878906 3.253906 -6.359375 2.953125 -5.609375 L 2.953125 0 Z M 1.46875 0 "/></g></g></g><g fill="#ffffff" fill-opacity="1"><g transform="translate(222.902327, 238.062407)"><g><path d="M 4.46875 0.21875 C 3.363281 0.21875 2.484375 -0.175781 1.828125 -0.96875 C 1.171875 -1.757812 0.84375 -2.890625 0.84375 -4.359375 C 0.84375 -5.066406 0.945312 -5.703125 1.15625 -6.265625 C 1.363281 -6.835938 1.640625 -7.320312 1.984375 -7.71875 C 2.335938 -8.113281 2.742188 -8.421875 3.203125 -8.640625 C 3.660156 -8.859375 4.140625 -8.96875 4.640625 -8.96875 C 5.148438 -8.96875 5.585938 -8.875 5.953125 -8.6875 C 6.328125 -8.507812 6.707031 -8.265625 7.09375 -7.953125 L 7.015625 -9.453125 L 7.015625 -12.8125 L 8.515625 -12.8125 L 8.515625 0 L 7.296875 0 L 7.15625 -1.03125 L 7.109375 -1.03125 C 6.765625 -0.6875 6.363281 -0.390625 5.90625 -0.140625 C 5.457031 0.0976562 4.976562 0.21875 4.46875 0.21875 Z M 4.78125 -1.03125 C 5.195312 -1.03125 5.582031 -1.128906 5.9375 -1.328125 C 6.300781 -1.523438 6.660156 -1.828125 7.015625 -2.234375 L 7.015625 -6.796875 C 6.648438 -7.140625 6.296875 -7.378906 5.953125 -7.515625 C 5.609375 -7.648438 5.253906 -7.71875 4.890625 -7.71875 C 4.546875 -7.71875 4.21875 -7.632812 3.90625 -7.46875 C 3.601562 -7.3125 3.335938 -7.085938 3.109375 -6.796875 C 2.878906 -6.503906 2.695312 -6.148438 2.5625 -5.734375 C 2.4375 -5.328125 2.375 -4.875 2.375 -4.375 C 2.375 -3.320312 2.582031 -2.5 3 -1.90625 C 3.425781 -1.320312 4.019531 -1.03125 4.78125 -1.03125 Z M 4.78125 -1.03125 "/></g></g></g><g fill="#ffffff" fill-opacity="1"><g transform="translate(232.885843, 238.062407)"><g><path d="M 4.875 0.21875 C 4.332031 0.21875 3.816406 0.117188 3.328125 -0.078125 C 2.847656 -0.285156 2.421875 -0.582031 2.046875 -0.96875 C 1.679688 -1.363281 1.382812 -1.847656 1.15625 -2.421875 C 0.9375 -2.992188 0.828125 -3.640625 0.828125 -4.359375 C 0.828125 -5.085938 0.9375 -5.734375 1.15625 -6.296875 C 1.382812 -6.867188 1.679688 -7.351562 2.046875 -7.75 C 2.421875 -8.15625 2.847656 -8.457031 3.328125 -8.65625 C 3.816406 -8.863281 4.332031 -8.96875 4.875 -8.96875 C 5.414062 -8.96875 5.925781 -8.863281 6.40625 -8.65625 C 6.894531 -8.457031 7.328125 -8.15625 7.703125 -7.75 C 8.078125 -7.351562 8.375 -6.867188 8.59375 -6.296875 C 8.8125 -5.734375 8.921875 -5.085938 8.921875 -4.359375 C 8.921875 -3.640625 8.8125 -2.992188 8.59375 -2.421875 C 8.375 -1.847656 8.078125 -1.363281 7.703125 -0.96875 C 7.328125 -0.582031 6.894531 -0.285156 6.40625 -0.078125 C 5.925781 0.117188 5.414062 0.21875 4.875 0.21875 Z M 4.875 -1.015625 C 5.25 -1.015625 5.59375 -1.09375 5.90625 -1.25 C 6.21875 -1.414062 6.484375 -1.644531 6.703125 -1.9375 C 6.921875 -2.226562 7.085938 -2.578125 7.203125 -2.984375 C 7.328125 -3.390625 7.390625 -3.847656 7.390625 -4.359375 C 7.390625 -4.859375 7.328125 -5.316406 7.203125 -5.734375 C 7.085938 -6.148438 6.921875 -6.503906 6.703125 -6.796875 C 6.484375 -7.097656 6.21875 -7.328125 5.90625 -7.484375 C 5.59375 -7.648438 5.25 -7.734375 4.875 -7.734375 C 4.5 -7.734375 4.15625 -7.648438 3.84375 -7.484375 C 3.539062 -7.328125 3.273438 -7.097656 3.046875 -6.796875 C 2.828125 -6.503906 2.65625 -6.148438 2.53125 -5.734375 C 2.414062 -5.316406 2.359375 -4.859375 2.359375 -4.359375 C 2.359375 -3.847656 2.414062 -3.390625 2.53125 -2.984375 C 2.65625 -2.578125 2.828125 -2.226562 3.046875 -1.9375 C 3.273438 -1.644531 3.539062 -1.414062 3.84375 -1.25 C 4.15625 -1.09375 4.5 -1.015625 4.875 -1.015625 Z M 4.875 -1.015625 "/></g></g></g><g fill="#ffffff" fill-opacity="1"><g transform="translate(242.635511, 238.062407)"><g><path d="M 3.359375 0 L 0.21875 -8.75 L 1.75 -8.75 L 3.40625 -3.78125 C 3.53125 -3.34375 3.660156 -2.910156 3.796875 -2.484375 C 3.941406 -2.054688 4.082031 -1.628906 4.21875 -1.203125 L 4.28125 -1.203125 C 4.414062 -1.628906 4.546875 -2.054688 4.671875 -2.484375 C 4.804688 -2.910156 4.941406 -3.34375 5.078125 -3.78125 L 6.734375 -8.75 L 8.1875 -8.75 L 5.09375 0 Z M 3.359375 0 "/></g></g></g><g fill="#ffffff" fill-opacity="1"><g transform="translate(251.036057, 238.062407)"><g><path d="M 3.484375 0.21875 C 2.753906 0.21875 2.144531 0.00390625 1.65625 -0.421875 C 1.175781 -0.859375 0.9375 -1.472656 0.9375 -2.265625 C 0.9375 -3.222656 1.359375 -3.957031 2.203125 -4.46875 C 3.054688 -4.976562 4.421875 -5.335938 6.296875 -5.546875 C 6.296875 -5.816406 6.269531 -6.082031 6.21875 -6.34375 C 6.164062 -6.613281 6.070312 -6.847656 5.9375 -7.046875 C 5.800781 -7.253906 5.617188 -7.421875 5.390625 -7.546875 C 5.160156 -7.671875 4.863281 -7.734375 4.5 -7.734375 C 4 -7.734375 3.523438 -7.632812 3.078125 -7.4375 C 2.628906 -7.25 2.234375 -7.035156 1.890625 -6.796875 L 1.3125 -7.828125 C 1.71875 -8.085938 2.210938 -8.34375 2.796875 -8.59375 C 3.390625 -8.84375 4.039062 -8.96875 4.75 -8.96875 C 5.820312 -8.96875 6.597656 -8.640625 7.078125 -7.984375 C 7.554688 -7.328125 7.796875 -6.453125 7.796875 -5.359375 L 7.796875 0 L 6.5625 0 L 6.4375 -1.046875 L 6.390625 -1.046875 C 5.972656 -0.691406 5.519531 -0.390625 5.03125 -0.140625 C 4.550781 0.0976562 4.035156 0.21875 3.484375 0.21875 Z M 3.921875 -0.96875 C 4.335938 -0.96875 4.734375 -1.066406 5.109375 -1.265625 C 5.484375 -1.460938 5.878906 -1.753906 6.296875 -2.140625 L 6.296875 -4.578125 C 5.566406 -4.472656 4.953125 -4.351562 4.453125 -4.21875 C 3.953125 -4.09375 3.550781 -3.9375 3.25 -3.75 C 2.945312 -3.570312 2.722656 -3.367188 2.578125 -3.140625 C 2.441406 -2.910156 2.375 -2.65625 2.375 -2.375 C 2.375 -1.875 2.523438 -1.515625 2.828125 -1.296875 C 3.128906 -1.078125 3.492188 -0.96875 3.921875 -0.96875 Z M 3.921875 -0.96875 "/></g></g></g><path stroke-linecap="round" transform="matrix(0.75, 0, 0, 0.75, 138.047515, 245.069634)" fill="none" stroke-linejoin="miter" d="M 0.999146 1.000905 L 173.410616 1.000905 " stroke="#38b6ff" stroke-width="2" stroke-opacity="1" stroke-miterlimit="4"/><g fill="#ffffff" fill-opacity="1"><g transform="translate(160.409562, 257.919593)"><g><path d="M 2.265625 0 L 0.328125 -9.1875 L 1.53125 -9.1875 L 2.484375 -4.1875 C 2.578125 -3.6875 2.664062 -3.191406 2.75 -2.703125 C 2.84375 -2.210938 2.9375 -1.71875 3.03125 -1.21875 L 3.078125 -1.21875 C 3.179688 -1.71875 3.285156 -2.210938 3.390625 -2.703125 C 3.503906 -3.191406 3.613281 -3.6875 3.71875 -4.1875 L 5 -9.1875 L 6.0625 -9.1875 L 7.34375 -4.1875 C 7.445312 -3.695312 7.554688 -3.203125 7.671875 -2.703125 C 7.785156 -2.210938 7.898438 -1.71875 8.015625 -1.21875 L 8.0625 -1.21875 C 8.144531 -1.71875 8.226562 -2.210938 8.3125 -2.703125 C 8.394531 -3.191406 8.484375 -3.6875 8.578125 -4.1875 L 9.546875 -9.1875 L 10.671875 -9.1875 L 8.765625 0 L 7.359375 0 L 5.984375 -5.53125 C 5.898438 -5.882812 5.820312 -6.226562 5.75 -6.5625 C 5.675781 -6.90625 5.601562 -7.253906 5.53125 -7.609375 L 5.46875 -7.609375 C 5.394531 -7.253906 5.316406 -6.90625 5.234375 -6.5625 C 5.160156 -6.226562 5.085938 -5.882812 5.015625 -5.53125 L 3.65625 0 Z M 2.265625 0 "/></g></g></g><g fill="#ffffff" fill-opacity="1"><g transform="translate(171.407425, 257.919593)"><g><path d="M 3.90625 0.171875 C 3.445312 0.171875 3.019531 0.0859375 2.625 -0.078125 C 2.226562 -0.242188 1.878906 -0.476562 1.578125 -0.78125 C 1.285156 -1.082031 1.054688 -1.453125 0.890625 -1.890625 C 0.722656 -2.328125 0.640625 -2.828125 0.640625 -3.390625 C 0.640625 -3.953125 0.722656 -4.453125 0.890625 -4.890625 C 1.066406 -5.335938 1.296875 -5.710938 1.578125 -6.015625 C 1.867188 -6.328125 2.195312 -6.5625 2.5625 -6.71875 C 2.925781 -6.882812 3.304688 -6.96875 3.703125 -6.96875 C 4.128906 -6.96875 4.507812 -6.894531 4.84375 -6.75 C 5.1875 -6.601562 5.472656 -6.390625 5.703125 -6.109375 C 5.929688 -5.828125 6.101562 -5.488281 6.21875 -5.09375 C 6.34375 -4.707031 6.40625 -4.269531 6.40625 -3.78125 C 6.40625 -3.65625 6.398438 -3.535156 6.390625 -3.421875 C 6.390625 -3.304688 6.382812 -3.207031 6.375 -3.125 L 1.78125 -3.125 C 1.820312 -2.394531 2.046875 -1.816406 2.453125 -1.390625 C 2.859375 -0.960938 3.390625 -0.75 4.046875 -0.75 C 4.367188 -0.75 4.664062 -0.796875 4.9375 -0.890625 C 5.21875 -0.992188 5.484375 -1.125 5.734375 -1.28125 L 6.140625 -0.53125 C 5.847656 -0.34375 5.519531 -0.175781 5.15625 -0.03125 C 4.789062 0.101562 4.375 0.171875 3.90625 0.171875 Z M 1.765625 -3.953125 L 5.40625 -3.953125 C 5.40625 -4.640625 5.253906 -5.160156 4.953125 -5.515625 C 4.660156 -5.878906 4.25 -6.0625 3.71875 -6.0625 C 3.476562 -6.0625 3.25 -6.015625 3.03125 -5.921875 C 2.8125 -5.828125 2.613281 -5.6875 2.4375 -5.5 C 2.257812 -5.320312 2.109375 -5.101562 1.984375 -4.84375 C 1.867188 -4.582031 1.796875 -4.285156 1.765625 -3.953125 Z M 1.765625 -3.953125 "/></g></g></g><g fill="#ffffff" fill-opacity="1"><g transform="translate(178.347556, 257.919593)"><g><path d="M 4.15625 0.171875 C 3.84375 0.171875 3.515625 0.09375 3.171875 -0.0625 C 2.828125 -0.21875 2.507812 -0.429688 2.21875 -0.703125 L 2.171875 -0.703125 L 2.078125 0 L 1.140625 0 L 1.140625 -9.96875 L 2.296875 -9.96875 L 2.296875 -7.25 L 2.265625 -6.015625 C 2.578125 -6.285156 2.914062 -6.507812 3.28125 -6.6875 C 3.644531 -6.875 4.015625 -6.96875 4.390625 -6.96875 C 4.828125 -6.96875 5.210938 -6.882812 5.546875 -6.71875 C 5.890625 -6.5625 6.175781 -6.332031 6.40625 -6.03125 C 6.632812 -5.726562 6.804688 -5.363281 6.921875 -4.9375 C 7.035156 -4.507812 7.09375 -4.035156 7.09375 -3.515625 C 7.09375 -2.929688 7.015625 -2.410156 6.859375 -1.953125 C 6.703125 -1.503906 6.488281 -1.117188 6.21875 -0.796875 C 5.945312 -0.484375 5.632812 -0.242188 5.28125 -0.078125 C 4.925781 0.0859375 4.550781 0.171875 4.15625 0.171875 Z M 3.96875 -0.796875 C 4.238281 -0.796875 4.492188 -0.859375 4.734375 -0.984375 C 4.972656 -1.109375 5.175781 -1.285156 5.34375 -1.515625 C 5.519531 -1.742188 5.65625 -2.023438 5.75 -2.359375 C 5.851562 -2.703125 5.90625 -3.082031 5.90625 -3.5 C 5.90625 -3.875 5.875 -4.210938 5.8125 -4.515625 C 5.75 -4.828125 5.644531 -5.09375 5.5 -5.3125 C 5.351562 -5.53125 5.164062 -5.695312 4.9375 -5.8125 C 4.707031 -5.9375 4.429688 -6 4.109375 -6 C 3.566406 -6 2.960938 -5.691406 2.296875 -5.078125 L 2.296875 -1.515625 C 2.597656 -1.253906 2.894531 -1.066406 3.1875 -0.953125 C 3.476562 -0.847656 3.738281 -0.796875 3.96875 -0.796875 Z M 3.96875 -0.796875 "/></g></g></g><g fill="#ffffff" fill-opacity="1"><g transform="translate(186.085238, 257.919593)"><g/></g></g><g fill="#ffffff" fill-opacity="1"><g transform="translate(188.883673, 257.919593)"><g><path d="M 1.265625 0 L 1.265625 -9.1875 L 3.5625 -9.1875 C 4.976562 -9.1875 6.050781 -8.789062 6.78125 -8 C 7.519531 -7.21875 7.890625 -6.097656 7.890625 -4.640625 C 7.890625 -3.910156 7.796875 -3.253906 7.609375 -2.671875 C 7.429688 -2.097656 7.160156 -1.613281 6.796875 -1.21875 C 6.429688 -0.820312 5.976562 -0.519531 5.4375 -0.3125 C 4.90625 -0.101562 4.296875 0 3.609375 0 Z M 2.421875 -0.953125 L 3.46875 -0.953125 C 4.539062 -0.953125 5.34375 -1.273438 5.875 -1.921875 C 6.414062 -2.566406 6.6875 -3.472656 6.6875 -4.640625 C 6.6875 -5.804688 6.414062 -6.695312 5.875 -7.3125 C 5.34375 -7.925781 4.539062 -8.234375 3.46875 -8.234375 L 2.421875 -8.234375 Z M 2.421875 -0.953125 "/></g></g></g><g fill="#ffffff" fill-opacity="1"><g transform="translate(197.488874, 257.919593)"><g><path d="M 3.90625 0.171875 C 3.445312 0.171875 3.019531 0.0859375 2.625 -0.078125 C 2.226562 -0.242188 1.878906 -0.476562 1.578125 -0.78125 C 1.285156 -1.082031 1.054688 -1.453125 0.890625 -1.890625 C 0.722656 -2.328125 0.640625 -2.828125 0.640625 -3.390625 C 0.640625 -3.953125 0.722656 -4.453125 0.890625 -4.890625 C 1.066406 -5.335938 1.296875 -5.710938 1.578125 -6.015625 C 1.867188 -6.328125 2.195312 -6.5625 2.5625 -6.71875 C 2.925781 -6.882812 3.304688 -6.96875 3.703125 -6.96875 C 4.128906 -6.96875 4.507812 -6.894531 4.84375 -6.75 C 5.1875 -6.601562 5.472656 -6.390625 5.703125 -6.109375 C 5.929688 -5.828125 6.101562 -5.488281 6.21875 -5.09375 C 6.34375 -4.707031 6.40625 -4.269531 6.40625 -3.78125 C 6.40625 -3.65625 6.398438 -3.535156 6.390625 -3.421875 C 6.390625 -3.304688 6.382812 -3.207031 6.375 -3.125 L 1.78125 -3.125 C 1.820312 -2.394531 2.046875 -1.816406 2.453125 -1.390625 C 2.859375 -0.960938 3.390625 -0.75 4.046875 -0.75 C 4.367188 -0.75 4.664062 -0.796875 4.9375 -0.890625 C 5.21875 -0.992188 5.484375 -1.125 5.734375 -1.28125 L 6.140625 -0.53125 C 5.847656 -0.34375 5.519531 -0.175781 5.15625 -0.03125 C 4.789062 0.101562 4.375 0.171875 3.90625 0.171875 Z M 1.765625 -3.953125 L 5.40625 -3.953125 C 5.40625 -4.640625 5.253906 -5.160156 4.953125 -5.515625 C 4.660156 -5.878906 4.25 -6.0625 3.71875 -6.0625 C 3.476562 -6.0625 3.25 -6.015625 3.03125 -5.921875 C 2.8125 -5.828125 2.613281 -5.6875 2.4375 -5.5 C 2.257812 -5.320312 2.109375 -5.101562 1.984375 -4.84375 C 1.867188 -4.582031 1.796875 -4.285156 1.765625 -3.953125 Z M 1.765625 -3.953125 "/></g></g></g><g fill="#ffffff" fill-opacity="1"><g transform="translate(204.429006, 257.919593)"><g><path d="M 2.625 0 L 0.171875 -6.796875 L 1.359375 -6.796875 L 2.640625 -2.9375 C 2.742188 -2.601562 2.847656 -2.265625 2.953125 -1.921875 C 3.066406 -1.585938 3.175781 -1.257812 3.28125 -0.9375 L 3.328125 -0.9375 C 3.429688 -1.257812 3.535156 -1.585938 3.640625 -1.921875 C 3.742188 -2.265625 3.847656 -2.601562 3.953125 -2.9375 L 5.234375 -6.796875 L 6.375 -6.796875 L 3.96875 0 Z M 2.625 0 "/></g></g></g><g fill="#ffffff" fill-opacity="1"><g transform="translate(210.963353, 257.919593)"><g><path d="M 3.90625 0.171875 C 3.445312 0.171875 3.019531 0.0859375 2.625 -0.078125 C 2.226562 -0.242188 1.878906 -0.476562 1.578125 -0.78125 C 1.285156 -1.082031 1.054688 -1.453125 0.890625 -1.890625 C 0.722656 -2.328125 0.640625 -2.828125 0.640625 -3.390625 C 0.640625 -3.953125 0.722656 -4.453125 0.890625 -4.890625 C 1.066406 -5.335938 1.296875 -5.710938 1.578125 -6.015625 C 1.867188 -6.328125 2.195312 -6.5625 2.5625 -6.71875 C 2.925781 -6.882812 3.304688 -6.96875 3.703125 -6.96875 C 4.128906 -6.96875 4.507812 -6.894531 4.84375 -6.75 C 5.1875 -6.601562 5.472656 -6.390625 5.703125 -6.109375 C 5.929688 -5.828125 6.101562 -5.488281 6.21875 -5.09375 C 6.34375 -4.707031 6.40625 -4.269531 6.40625 -3.78125 C 6.40625 -3.65625 6.398438 -3.535156 6.390625 -3.421875 C 6.390625 -3.304688 6.382812 -3.207031 6.375 -3.125 L 1.78125 -3.125 C 1.820312 -2.394531 2.046875 -1.816406 2.453125 -1.390625 C 2.859375 -0.960938 3.390625 -0.75 4.046875 -0.75 C 4.367188 -0.75 4.664062 -0.796875 4.9375 -0.890625 C 5.21875 -0.992188 5.484375 -1.125 5.734375 -1.28125 L 6.140625 -0.53125 C 5.847656 -0.34375 5.519531 -0.175781 5.15625 -0.03125 C 4.789062 0.101562 4.375 0.171875 3.90625 0.171875 Z M 1.765625 -3.953125 L 5.40625 -3.953125 C 5.40625 -4.640625 5.253906 -5.160156 4.953125 -5.515625 C 4.660156 -5.878906 4.25 -6.0625 3.71875 -6.0625 C 3.476562 -6.0625 3.25 -6.015625 3.03125 -5.921875 C 2.8125 -5.828125 2.613281 -5.6875 2.4375 -5.5 C 2.257812 -5.320312 2.109375 -5.101562 1.984375 -4.84375 C 1.867188 -4.582031 1.796875 -4.285156 1.765625 -3.953125 Z M 1.765625 -3.953125 "/></g></g></g><g fill="#ffffff" fill-opacity="1"><g transform="translate(217.903485, 257.919593)"><g><path d="M 2.359375 0.171875 C 1.921875 0.171875 1.609375 0.0390625 1.421875 -0.21875 C 1.234375 -0.476562 1.140625 -0.863281 1.140625 -1.375 L 1.140625 -9.96875 L 2.296875 -9.96875 L 2.296875 -1.28125 C 2.296875 -1.101562 2.328125 -0.972656 2.390625 -0.890625 C 2.453125 -0.816406 2.53125 -0.78125 2.625 -0.78125 C 2.65625 -0.78125 2.6875 -0.78125 2.71875 -0.78125 C 2.75 -0.78125 2.800781 -0.789062 2.875 -0.8125 L 3.03125 0.0625 C 2.945312 0.09375 2.851562 0.117188 2.75 0.140625 C 2.65625 0.160156 2.523438 0.171875 2.359375 0.171875 Z M 2.359375 0.171875 "/></g></g></g><g fill="#ffffff" fill-opacity="1"><g transform="translate(221.471489, 257.919593)"><g><path d="M 3.796875 0.171875 C 3.367188 0.171875 2.96875 0.09375 2.59375 -0.0625 C 2.21875 -0.226562 1.882812 -0.460938 1.59375 -0.765625 C 1.300781 -1.066406 1.066406 -1.4375 0.890625 -1.875 C 0.722656 -2.320312 0.640625 -2.828125 0.640625 -3.390625 C 0.640625 -3.953125 0.722656 -4.457031 0.890625 -4.90625 C 1.066406 -5.351562 1.300781 -5.726562 1.59375 -6.03125 C 1.882812 -6.34375 2.21875 -6.578125 2.59375 -6.734375 C 2.96875 -6.890625 3.367188 -6.96875 3.796875 -6.96875 C 4.210938 -6.96875 4.609375 -6.890625 4.984375 -6.734375 C 5.367188 -6.578125 5.703125 -6.34375 5.984375 -6.03125 C 6.273438 -5.726562 6.503906 -5.351562 6.671875 -4.90625 C 6.847656 -4.457031 6.9375 -3.953125 6.9375 -3.390625 C 6.9375 -2.828125 6.847656 -2.320312 6.671875 -1.875 C 6.503906 -1.4375 6.273438 -1.066406 5.984375 -0.765625 C 5.703125 -0.460938 5.367188 -0.226562 4.984375 -0.0625 C 4.609375 0.09375 4.210938 0.171875 3.796875 0.171875 Z M 3.796875 -0.78125 C 4.085938 -0.78125 4.351562 -0.84375 4.59375 -0.96875 C 4.832031 -1.09375 5.035156 -1.269531 5.203125 -1.5 C 5.378906 -1.726562 5.515625 -2 5.609375 -2.3125 C 5.703125 -2.632812 5.75 -2.992188 5.75 -3.390625 C 5.75 -3.773438 5.703125 -4.128906 5.609375 -4.453125 C 5.515625 -4.773438 5.378906 -5.050781 5.203125 -5.28125 C 5.035156 -5.519531 4.832031 -5.703125 4.59375 -5.828125 C 4.351562 -5.953125 4.085938 -6.015625 3.796875 -6.015625 C 3.503906 -6.015625 3.234375 -5.953125 2.984375 -5.828125 C 2.742188 -5.703125 2.535156 -5.519531 2.359375 -5.28125 C 2.191406 -5.050781 2.0625 -4.773438 1.96875 -4.453125 C 1.875 -4.128906 1.828125 -3.773438 1.828125 -3.390625 C 1.828125 -2.992188 1.875 -2.632812 1.96875 -2.3125 C 2.0625 -2 2.191406 -1.726562 2.359375 -1.5 C 2.535156 -1.269531 2.742188 -1.09375 2.984375 -0.96875 C 3.234375 -0.84375 3.503906 -0.78125 3.796875 -0.78125 Z M 3.796875 -0.78125 "/></g></g></g><g fill="#ffffff" fill-opacity="1"><g transform="translate(229.055259, 257.919593)"><g><path d="M 1.140625 2.875 L 1.140625 -6.796875 L 2.09375 -6.796875 L 2.203125 -6.015625 L 2.234375 -6.015625 C 2.546875 -6.273438 2.882812 -6.5 3.25 -6.6875 C 3.625 -6.875 4.007812 -6.96875 4.40625 -6.96875 C 4.84375 -6.96875 5.226562 -6.882812 5.5625 -6.71875 C 5.90625 -6.5625 6.1875 -6.332031 6.40625 -6.03125 C 6.632812 -5.726562 6.804688 -5.363281 6.921875 -4.9375 C 7.035156 -4.507812 7.09375 -4.03125 7.09375 -3.5 C 7.09375 -2.914062 7.015625 -2.398438 6.859375 -1.953125 C 6.703125 -1.503906 6.488281 -1.117188 6.21875 -0.796875 C 5.945312 -0.484375 5.632812 -0.242188 5.28125 -0.078125 C 4.925781 0.0859375 4.550781 0.171875 4.15625 0.171875 C 3.84375 0.171875 3.53125 0.101562 3.21875 -0.03125 C 2.90625 -0.175781 2.585938 -0.367188 2.265625 -0.609375 L 2.296875 0.578125 L 2.296875 2.875 Z M 3.96875 -0.796875 C 4.238281 -0.796875 4.492188 -0.859375 4.734375 -0.984375 C 4.972656 -1.109375 5.175781 -1.285156 5.34375 -1.515625 C 5.519531 -1.742188 5.65625 -2.023438 5.75 -2.359375 C 5.851562 -2.703125 5.90625 -3.082031 5.90625 -3.5 C 5.90625 -3.875 5.875 -4.210938 5.8125 -4.515625 C 5.75 -4.828125 5.644531 -5.09375 5.5 -5.3125 C 5.351562 -5.53125 5.164062 -5.695312 4.9375 -5.8125 C 4.707031 -5.9375 4.429688 -6 4.109375 -6 C 3.828125 -6 3.535156 -5.921875 3.234375 -5.765625 C 2.941406 -5.609375 2.628906 -5.378906 2.296875 -5.078125 L 2.296875 -1.515625 C 2.609375 -1.253906 2.90625 -1.066406 3.1875 -0.953125 C 3.476562 -0.847656 3.738281 -0.796875 3.96875 -0.796875 Z M 3.96875 -0.796875 "/></g></g></g><g fill="#ffffff" fill-opacity="1"><g transform="translate(236.820922, 257.919593)"><g><path d="M 3.90625 0.171875 C 3.445312 0.171875 3.019531 0.0859375 2.625 -0.078125 C 2.226562 -0.242188 1.878906 -0.476562 1.578125 -0.78125 C 1.285156 -1.082031 1.054688 -1.453125 0.890625 -1.890625 C 0.722656 -2.328125 0.640625 -2.828125 0.640625 -3.390625 C 0.640625 -3.953125 0.722656 -4.453125 0.890625 -4.890625 C 1.066406 -5.335938 1.296875 -5.710938 1.578125 -6.015625 C 1.867188 -6.328125 2.195312 -6.5625 2.5625 -6.71875 C 2.925781 -6.882812 3.304688 -6.96875 3.703125 -6.96875 C 4.128906 -6.96875 4.507812 -6.894531 4.84375 -6.75 C 5.1875 -6.601562 5.472656 -6.390625 5.703125 -6.109375 C 5.929688 -5.828125 6.101562 -5.488281 6.21875 -5.09375 C 6.34375 -4.707031 6.40625 -4.269531 6.40625 -3.78125 C 6.40625 -3.65625 6.398438 -3.535156 6.390625 -3.421875 C 6.390625 -3.304688 6.382812 -3.207031 6.375 -3.125 L 1.78125 -3.125 C 1.820312 -2.394531 2.046875 -1.816406 2.453125 -1.390625 C 2.859375 -0.960938 3.390625 -0.75 4.046875 -0.75 C 4.367188 -0.75 4.664062 -0.796875 4.9375 -0.890625 C 5.21875 -0.992188 5.484375 -1.125 5.734375 -1.28125 L 6.140625 -0.53125 C 5.847656 -0.34375 5.519531 -0.175781 5.15625 -0.03125 C 4.789062 0.101562 4.375 0.171875 3.90625 0.171875 Z M 1.765625 -3.953125 L 5.40625 -3.953125 C 5.40625 -4.640625 5.253906 -5.160156 4.953125 -5.515625 C 4.660156 -5.878906 4.25 -6.0625 3.71875 -6.0625 C 3.476562 -6.0625 3.25 -6.015625 3.03125 -5.921875 C 2.8125 -5.828125 2.613281 -5.6875 2.4375 -5.5 C 2.257812 -5.320312 2.109375 -5.101562 1.984375 -4.84375 C 1.867188 -4.582031 1.796875 -4.285156 1.765625 -3.953125 Z M 1.765625 -3.953125 "/></g></g></g><g fill="#ffffff" fill-opacity="1"><g transform="translate(243.761054, 257.919593)"><g><path d="M 1.140625 0 L 1.140625 -6.796875 L 2.09375 -6.796875 L 2.203125 -5.578125 L 2.234375 -5.578125 C 2.472656 -6.003906 2.753906 -6.34375 3.078125 -6.59375 C 3.410156 -6.84375 3.773438 -6.96875 4.171875 -6.96875 C 4.441406 -6.96875 4.6875 -6.921875 4.90625 -6.828125 L 4.671875 -5.828125 C 4.566406 -5.859375 4.46875 -5.882812 4.375 -5.90625 C 4.28125 -5.925781 4.160156 -5.9375 4.015625 -5.9375 C 3.722656 -5.9375 3.421875 -5.816406 3.109375 -5.578125 C 2.796875 -5.347656 2.523438 -4.945312 2.296875 -4.375 L 2.296875 0 Z M 1.140625 0 "/></g></g></g></svg>