<svg version="1.2" xmlns="http://www.w3.org/2000/svg" viewBox="0 0 162 163" width="162" height="163"><style>.a{fill:#6c32df}</style><path fill-rule="evenodd" class="a" d="m55.8 57q17.4 2.4 24.9 10.1 7.4 7.7 7.4 18.5 0 9.1-4.6 16-4.6 7-13.1 10.9-8.6 3.9-20.4 3.9-4.2 0-7.3-0.2-10.1-0.3-20-0.3-13 0-19.6 0.5v-3.2q5.7-0.3 8.3-1.2 2.6-1 3.6-3.7 0.9-2.7 0.9-8.7v-78.8q0-6-0.9-8.7-1-2.7-3.6-3.6-2.6-1-8.3-1.3v-3.2q6.6 0.5 19.3 0.5l17.2-0.2q3-0.1 6.8-0.1 16.2 0 24.8 6.8 8.7 6.8 8.7 18.1 0 9.2-5.8 16.5-5.8 7.3-18.3 11.1zm-13.4-49.9q-4.9 0-7.4 1.2-2.4 1.1-3.4 3.9-0.9 2.9-0.9 8.6v35.9h10.6q13 0 18.2-7.1 5.1-7 5.1-18.8 0-11.9-5.2-17.8-5.2-5.9-17-5.9zm0.2 105.6q29.7 0 29.7-27.8 0-12.5-6.8-19-6.7-6.5-21.5-6.5h-13.3v40.1q0 5.8 0.9 8.5 1 2.7 3.4 3.7 2.5 1 7.6 1z"/><path class="a" d="m124.2 62.4q7.6 0 12.8 2.5 5.3 2.6 11 7.5 1.7 1.4 3 1.4 3.1 0 4-9.2h3.5q-0.6 9.2-0.6 32.5h-3.5q-1.6-8.1-3.1-12-1.6-3.8-4.7-7.9-4.3-5.7-10.3-8.7-6.1-3-12.7-3-9.2 0-15.9 5.6-6.7 5.5-10.4 16-3.7 10.6-3.7 24.8 0 14.5 4.1 24.8 4.1 10.3 11.1 15.7 7 5.3 15.9 5.3 6.8 0 13-3 6.3-3 10.6-8.8 3-4 4.4-8.5 1.5-4.5 2.7-12.8h3.6q0 24.3 0.6 34h-3.5q-0.5-4.8-1.4-7-1-2.2-2.5-2.2-1.2 0-3.1 1.3-5.9 5-11.4 7.6-5.6 2.5-13.7 2.5-13.7 0-24.1-5.6-10.4-5.7-16.1-16.6-5.7-10.9-5.7-26.1 0-14.8 5.9-26.2 5.8-11.4 16.4-17.7 10.5-6.2 23.8-6.2z"/></svg>