<svg version="1.2" xmlns="http://www.w3.org/2000/svg" viewBox="0 0 114 115" width="114" height="115"><style>.a{fill:#bc47dd}.b{fill:#38b6ff}.c{fill:#fff}</style><path fill-rule="evenodd" class="a" d="m30.2 89.5l27.4-27.5 27.5 27.5c-15.7 13.7-39.3 13.7-54.9 0z"/><path fill-rule="evenodd" class="a" d="m89 30.6c13.8 15.7 13.8 39.3 0 54.9l-27.4-27.4z"/><path fill-rule="evenodd" class="b" d="m26.2 30.6l27.5 27.5-27.5 27.4c-13.7-15.6-13.7-39.2 0-54.9z"/><path fill-rule="evenodd" class="b" d="m30.2 26.7c15.7-13.8 39.2-13.8 54.9 0l-27.5 27.4z"/><path fill-rule="evenodd" class="a" d="m56.4 39.4l1.2-4.1c-0.3-0.6-0.9-1.8-1.4-3-0.8-1.8-1.5-3.7-1.5-3.7-0.2-0.3 0-0.8 0.3-1 0.4-0.2 0.9-0.1 1.1 0.3 0 0 1.1 1.5 2.1 3.2 1 1.7 1.9 3.4 1.9 3.4 0.2 0.3 0.2 0.6 0.1 0.9l-1.2 4c3.1 0.2 6.1 1.2 8.9 3 0.6-1.1 1.5-2.5 2.3-3.8 1.1-1.8 2.2-3.4 2.2-3.4 0.1-0.3 0.4-0.5 0.7-0.6 0 0 1-0.3 2.3-0.6 1.2-0.3 2.6-0.6 3.2-0.8l-3 3c-0.6 0.2-1.1 0.4-1.4 0.5-0.3 0.5-0.7 1.3-1.3 2.2l-4.1 4.1q1.1 0.8 2.1 1.8 1.4 1.4 2.4 3 0.3-0.3 0.7-0.4l9-1.5c0.5-0.1 0.9 0.1 1.1 0.3 0 0 0.8 0.9 1.9 2 0.8 0.9 1.8 2 2.7 3.1 1.5 1.8 2.8 3.5 2.8 3.5 0.3 0.3 0.3 0.8 0 1.1-0.4 0.3-0.8 0.3-1.1 0 0 0-1.6-1.4-3.4-3-1-1-2-2-2.9-2.9-0.6-0.6-1.1-1.1-1.5-1.5l-7.6 1.3c3.8 4.3 8.1 10.6 9.1 16.6 0.7 4.4-1.6 8.4-3.4 10.8l-8-8q-0.8 1.1-1.8 2.1-1 1-2.1 1.8l8 8c-2.4 1.8-6.4 4.1-10.8 3.4-6.1-1-12.3-5.3-16.7-9l-1.2 7.6c0.3 0.3 0.8 0.8 1.5 1.4 0.8 0.9 1.9 1.9 2.8 2.9 1.7 1.8 3.1 3.4 3.1 3.4 0.3 0.3 0.2 0.8-0.1 1.1-0.3 0.3-0.7 0.3-1 0 0 0-1.7-1.3-3.6-2.8-1-0.9-2.1-1.9-3-2.7-1.2-1.1-2-1.9-2-1.9-0.3-0.2-0.4-0.6-0.4-1l1.5-9q0.1-0.5 0.4-0.8-1.5-1-2.9-2.4-1-1-1.8-2.1l-4.1 4.1c-0.9 0.5-1.7 1-2.2 1.3-0.1 0.3-0.3 0.9-0.5 1.4l-3 3c0.1-0.5 0.4-2 0.7-3.2 0.4-1.3 0.7-2.3 0.7-2.3 0.1-0.3 0.3-0.6 0.6-0.7 0 0 1.6-1.1 3.4-2.2 1.3-0.8 2.7-1.7 3.7-2.3-1.7-2.7-2.7-5.8-2.9-8.9l-4 1.2c-0.3 0.1-0.7 0.1-0.9-0.1 0 0-1.8-0.9-3.4-1.9-1.7-1-3.3-2.1-3.3-2.1-0.3-0.2-0.4-0.7-0.2-1.1 0.2-0.3 0.7-0.5 1-0.3 0 0 1.9 0.7 3.6 1.5 1.3 0.5 2.5 1.1 3.1 1.4l4-1.2q0.2-2.2 0.8-4.3-0.1-0.5-0.3-1.2c-0.2-1.4 0.6-4.1 1.2-6.3l-2.2-2.2-1.5 0.4q-0.3 0-0.6-0.1c0 0-0.3-0.2-0.7-0.4-0.3-0.2-0.7-0.5-1-0.7-0.6-0.5-1.1-0.9-1.1-0.9-0.3-0.2-0.5-0.7-0.3-1.1 0.3-0.3 0.7-0.5 1.1-0.3 0 0 3-1.4 3.8-1.2-0.3-0.8 1.2-3.8 1.2-3.8-0.2-0.4 0-0.8 0.3-1 0.4-0.3 0.9-0.1 1.1 0.2 0 0 0.4 0.5 0.9 1.1 0.2 0.3 0.5 0.7 0.7 1 0.2 0.4 0.3 0.7 0.3 0.7q0.2 0.3 0.2 0.7l-0.4 1.5 2.2 2.2c2.2-0.7 4.9-1.5 6.3-1.2q0.6 0.1 1.2 0.3 2.1-0.7 4.3-0.8zm1.2 14.7l-5.8-5.7q-1.2 0.7-2.2 1.7-0.9 0.9-1.6 2l5.7 6-5.8 5.8q0.7 1.1 1.7 2.2 1.1 1 2.2 1.7l5.8-5.8 5.8 5.8q1.2-0.7 2.2-1.7 1.1-1.1 1.8-2.2l-5.8-5.8 5.8-5.8q-0.7-1.2-1.8-2.2-1-1.1-2.2-1.8z"/><path fill-rule="evenodd" class="b" d="m46.5 73.1l26.2-26.2q0.3 0.4 0.6 0.9 0.3-0.3 0.7-0.4l9-1.5c0.5-0.1 0.9 0.1 1.1 0.3 0 0 0.8 0.9 1.9 2 0.8 0.9 1.8 2 2.7 3.1 1.5 1.8 2.8 3.5 2.8 3.5 0.3 0.3 0.3 0.8 0 1.1-0.4 0.3-0.8 0.3-1.1 0 0 0-1.6-1.4-3.4-3-1-1-2-2-2.9-2.9-0.6-0.6-1.1-1.1-1.5-1.5l-7.6 1.3c3.8 4.3 8.1 10.6 9.1 16.6 0.7 4.4-3.3 10.6-5 13-2.4 1.8-8.7 5.8-13.1 5.1-6.1-1-12.3-5.3-16.7-9l-1.2 7.6c0.3 0.3 0.8 0.8 1.5 1.4 0.8 0.9 1.9 1.9 2.8 2.9 1.7 1.8 3.1 3.4 3.1 3.4 0.2 0.3 0.2 0.8-0.1 1.1-0.3 0.3-0.7 0.3-1 0 0 0-1.7-1.3-3.6-2.8-1-0.9-2.1-1.9-3-2.7-1.2-1.1-2-1.9-2-1.9-0.3-0.2-0.4-0.6-0.4-1l1.5-9q0.1-0.5 0.4-0.8-0.4-0.3-0.8-0.6z"/><path fill-rule="evenodd" class="c" d="m57.6 54.1l-5.8-5.7q-1.2 0.7-2.2 1.7-0.9 0.9-1.6 2l5.7 6-5.8 5.8q0.7 1.1 1.7 2.2 1.1 1 2.2 1.7l5.8-5.8 5.8 5.8q1.2-0.7 2.2-1.7 1.1-1.1 1.8-2.2l-5.8-5.8 5.8-5.8q-0.7-1.2-1.8-2.2-1-1.1-2.2-1.8z"/><path fill-rule="evenodd" class="a" d="m98.4 21.2c19.5 21.6 18.9 54.9-1.9 75.7-20.8 20.8-54.1 21.5-75.7 2l5.3-5.2c18.7 16.5 47.3 15.9 65.2-2 17.9-17.9 18.5-46.6 1.9-65.3z"/><path fill-rule="evenodd" class="b" d="m16.9 94.9c-19.6-21.5-18.9-54.9 1.9-75.7 20.7-20.8 54.1-21.4 75.6-2l-5.2 5.3c-18.7-16.6-47.3-15.9-65.2 1.9-17.9 17.9-18.5 46.6-1.9 65.3z"/></svg>