<svg xmlns="http://www.w3.org/2000/svg" xmlns:xlink="http://www.w3.org/1999/xlink" width="500" zoomAndPan="magnify" viewBox="0 0 375 374.999991" height="500" preserveAspectRatio="xMidYMid meet" version="1.0"><defs><g/><clipPath id="3c550f2ac0"><path d="M 124 56 L 180 56 L 180 249 L 124 249 Z M 124 56 " clip-rule="nonzero"/></clipPath><clipPath id="f5493249bf"><path d="M 47.53125 241.089844 L 63.519531 47.496094 L 257.109375 63.484375 L 241.125 257.074219 Z M 47.53125 241.089844 " clip-rule="nonzero"/></clipPath><clipPath id="3ea360d5aa"><path d="M 47.53125 241.089844 L 63.519531 47.496094 L 257.109375 63.484375 L 241.125 257.074219 Z M 47.53125 241.089844 " clip-rule="nonzero"/></clipPath><clipPath id="98ca108b6f"><path d="M 137 99.195312 L 238 99.195312 L 238 249.195312 L 137 249.195312 Z M 137 99.195312 " clip-rule="nonzero"/></clipPath><clipPath id="ea3a03e30e"><path d="M 209 157 L 250 157 L 250 227 L 209 227 Z M 209 157 " clip-rule="nonzero"/></clipPath><clipPath id="18a42d4b34"><path d="M 268.230469 174.195312 L 250.324219 229.097656 L 191.855469 210.027344 L 209.761719 155.125 Z M 268.230469 174.195312 " clip-rule="nonzero"/></clipPath><clipPath id="73b5162fc5"><path d="M 268.230469 174.195312 L 250.324219 229.097656 L 191.855469 210.027344 L 209.761719 155.125 Z M 268.230469 174.195312 " clip-rule="nonzero"/></clipPath><clipPath id="eb7448e3e6"><path d="M 150 171 L 171 171 L 171 241 L 150 241 Z M 150 171 " clip-rule="nonzero"/></clipPath><clipPath id="5b67b8216d"><path d="M 159.144531 243.589844 L 127.058594 203.949219 L 169.03125 169.972656 L 201.117188 209.613281 Z M 159.144531 243.589844 " clip-rule="nonzero"/></clipPath><clipPath id="0c67cc79e7"><path d="M 127.167969 204.085938 L 159.257812 243.726562 L 201.230469 209.75 L 169.140625 170.109375 Z M 127.167969 204.085938 " clip-rule="nonzero"/></clipPath></defs><g clip-path="url(#3c550f2ac0)"><g clip-path="url(#f5493249bf)"><g clip-path="url(#3ea360d5aa)"><path fill="#8f57ff" d="M 144.292969 248.382812 C 141.132812 243.929688 138.660156 239.253906 136.667969 234.414062 C 131.972656 223.015625 130.707031 210.875 132.332031 199.050781 C 133.464844 190.824219 136.105469 182.855469 140.15625 175.457031 C 142.113281 171.878906 144.394531 168.445312 146.996094 165.179688 C 149.523438 162.003906 152.304688 158.957031 155.480469 156.195312 C 161.320312 150.929688 166.1875 144.996094 169.867188 138.503906 C 175.527344 128.515625 178.632812 117.429688 179 106.21875 C 179.582031 88.355469 173.394531 70.304688 160.15625 56.316406 C 171.292969 71.023438 175.386719 88.765625 173.132812 105.730469 C 171.804688 115.71875 168.164062 125.339844 162.417969 133.898438 C 158.796875 139.296875 154.324219 144.242188 148.964844 148.503906 C 145.195312 151.621094 141.78125 155.003906 138.84375 158.691406 C 135.820312 162.496094 133.253906 166.578125 131.195312 170.859375 C 127.027344 179.53125 124.730469 188.929688 124.429688 198.398438 C 124.25 204.03125 124.75 209.660156 126 215.183594 C 128.757812 227.378906 134.839844 238.871094 144.292969 248.382812 Z M 144.292969 248.382812 " fill-opacity="1" fill-rule="evenodd"/></g></g></g><g clip-path="url(#98ca108b6f)"><path fill="#000000" d="M 236.136719 206.367188 C 229.875 179.136719 209.007812 169.824219 209.007812 169.824219 C 209.007812 169.824219 211.898438 175.496094 213.511719 183.53125 C 215.125 191.851562 213.75 201.589844 206.253906 206.269531 C 201.558594 209.203125 194.539062 208.351562 190.414062 204.378906 C 185.859375 200.078125 184.863281 193.222656 186.855469 187.363281 C 187.613281 184.855469 188.941406 182.351562 190.414062 180.082031 C 190.980469 179.183594 191.550781 178.285156 192.074219 177.386719 L 195.679688 171.523438 C 210.191406 148.21875 206.207031 118.011719 186.191406 99.195312 C 186.191406 99.195312 196.34375 123.589844 169.636719 150.203125 C 157.164062 162.636719 145.683594 176.914062 140.421875 193.320312 C 137.195312 203.480469 136.625 214.875 140.65625 224.898438 C 145.066406 236.007812 154.03125 244.847656 165.039062 249.195312 C 127.28125 215.347656 145.96875 186.984375 175.28125 159.941406 C 180.214844 155.308594 188.183594 160.085938 186.285156 166.5625 C 185.480469 169.257812 184.292969 171.855469 182.683594 174.21875 C 174.476562 185.660156 172.625 200.929688 183.15625 211.707031 C 187.996094 216.625 194.964844 219.035156 201.890625 218.5625 C 210.429688 217.902344 216.925781 212.9375 220.816406 206.175781 C 222.191406 203.765625 225.84375 204.191406 226.554688 206.886719 C 226.554688 206.933594 226.554688 206.933594 226.554688 206.980469 C 229.542969 219.601562 226.839844 232.367188 218.253906 242.386719 C 216.214844 244.847656 213.941406 247.164062 211.378906 249.195312 C 214.605469 248.34375 217.6875 246.785156 220.484375 244.894531 C 233.246094 236.289062 239.554688 221.066406 236.136719 206.367188 Z M 236.136719 206.367188 " fill-opacity="1" fill-rule="nonzero"/></g><g clip-path="url(#ea3a03e30e)"><g clip-path="url(#18a42d4b34)"><g clip-path="url(#73b5162fc5)"><path fill="#8f57ff" d="M 209.214844 157.398438 C 237.660156 164.285156 259.9375 199.535156 244.523438 226.890625 L 244.003906 226.71875 C 247.796875 198.328125 237.539062 168.628906 209.046875 157.921875 Z M 209.214844 157.398438 " fill-opacity="1" fill-rule="nonzero"/></g></g></g><g clip-path="url(#eb7448e3e6)"><g clip-path="url(#5b67b8216d)"><g clip-path="url(#0c67cc79e7)"><path fill="#8f57ff" d="M 170.605469 171.578125 C 149.285156 186.246094 142.023438 222.394531 163.386719 240.117188 L 163.765625 239.8125 C 151.664062 217.566406 150.757812 189.796875 170.910156 171.957031 Z M 170.605469 171.578125 " fill-opacity="1" fill-rule="nonzero"/></g></g></g><g fill="#8f57ff" fill-opacity="1"><g transform="translate(86.497635, 291.902383)"><g><path d="M 2.21875 0 L 2.21875 -21 L 9.59375 -21 C 11.070312 -21 12.296875 -20.765625 13.265625 -20.296875 C 14.242188 -19.828125 14.972656 -19.1875 15.453125 -18.375 C 15.929688 -17.5625 16.171875 -16.65625 16.171875 -15.65625 C 16.171875 -14.300781 15.804688 -13.234375 15.078125 -12.453125 C 14.347656 -11.671875 13.472656 -11.128906 12.453125 -10.828125 C 13.234375 -10.691406 13.941406 -10.382812 14.578125 -9.90625 C 15.222656 -9.425781 15.726562 -8.820312 16.09375 -8.09375 C 16.46875 -7.375 16.65625 -6.585938 16.65625 -5.734375 C 16.65625 -4.671875 16.394531 -3.703125 15.875 -2.828125 C 15.351562 -1.960938 14.582031 -1.273438 13.5625 -0.765625 C 12.539062 -0.253906 11.300781 0 9.84375 0 Z M 4.734375 -11.8125 L 9.421875 -11.8125 C 10.765625 -11.8125 11.796875 -12.125 12.515625 -12.75 C 13.234375 -13.382812 13.59375 -14.265625 13.59375 -15.390625 C 13.59375 -16.453125 13.234375 -17.300781 12.515625 -17.9375 C 11.804688 -18.582031 10.742188 -18.90625 9.328125 -18.90625 L 4.734375 -18.90625 Z M 4.734375 -2.09375 L 9.5625 -2.09375 C 11.007812 -2.09375 12.117188 -2.425781 12.890625 -3.09375 C 13.671875 -3.769531 14.0625 -4.707031 14.0625 -5.90625 C 14.0625 -7.09375 13.648438 -8.039062 12.828125 -8.75 C 12.015625 -9.457031 10.910156 -9.8125 9.515625 -9.8125 L 4.734375 -9.8125 Z M 4.734375 -2.09375 "/></g></g></g><g fill="#8f57ff" fill-opacity="1"><g transform="translate(104.557612, 291.902383)"><g><path d="M 2.0625 0 L 2.0625 -14.875 L 4.34375 -14.875 L 4.5625 -12.03125 C 5.019531 -13.007812 5.71875 -13.785156 6.65625 -14.359375 C 7.59375 -14.941406 8.753906 -15.234375 10.140625 -15.234375 L 10.140625 -12.59375 L 9.453125 -12.59375 C 8.566406 -12.59375 7.753906 -12.4375 7.015625 -12.125 C 6.273438 -11.820312 5.6875 -11.300781 5.25 -10.5625 C 4.8125 -9.820312 4.59375 -8.800781 4.59375 -7.5 L 4.59375 0 Z M 2.0625 0 "/></g></g></g><g fill="#8f57ff" fill-opacity="1"><g transform="translate(115.447603, 291.902383)"><g><path d="M 3.6875 6.59375 L 7.375 -1.4375 L 6.515625 -1.4375 L 0.59375 -14.875 L 3.328125 -14.875 L 8.25 -3.296875 L 13.46875 -14.875 L 16.078125 -14.875 L 6.328125 6.59375 Z M 3.6875 6.59375 "/></g></g></g><g fill="#8f57ff" fill-opacity="1"><g transform="translate(132.127583, 291.902383)"><g><path d="M 7.015625 0.359375 C 5.773438 0.359375 4.742188 0.148438 3.921875 -0.265625 C 3.109375 -0.691406 2.5 -1.253906 2.09375 -1.953125 C 1.695312 -2.648438 1.5 -3.410156 1.5 -4.234375 C 1.5 -5.753906 2.078125 -6.921875 3.234375 -7.734375 C 4.398438 -8.554688 5.984375 -8.96875 7.984375 -8.96875 L 12 -8.96875 L 12 -9.15625 C 12 -10.445312 11.65625 -11.425781 10.96875 -12.09375 C 10.289062 -12.769531 9.382812 -13.109375 8.25 -13.109375 C 7.269531 -13.109375 6.425781 -12.863281 5.71875 -12.375 C 5.007812 -11.882812 4.5625 -11.171875 4.375 -10.234375 L 1.796875 -10.234375 C 1.898438 -11.304688 2.265625 -12.210938 2.890625 -12.953125 C 3.523438 -13.691406 4.3125 -14.253906 5.25 -14.640625 C 6.1875 -15.035156 7.1875 -15.234375 8.25 -15.234375 C 10.332031 -15.234375 11.894531 -14.675781 12.9375 -13.5625 C 13.988281 -12.457031 14.515625 -10.988281 14.515625 -9.15625 L 14.515625 0 L 12.265625 0 L 12.125 -2.671875 C 11.695312 -1.828125 11.078125 -1.109375 10.265625 -0.515625 C 9.460938 0.0664062 8.378906 0.359375 7.015625 0.359375 Z M 7.40625 -1.765625 C 8.363281 -1.765625 9.1875 -2.015625 9.875 -2.515625 C 10.570312 -3.015625 11.097656 -3.664062 11.453125 -4.46875 C 11.816406 -5.269531 12 -6.109375 12 -6.984375 L 12 -7.015625 L 8.1875 -7.015625 C 6.707031 -7.015625 5.660156 -6.757812 5.046875 -6.25 C 4.441406 -5.738281 4.140625 -5.101562 4.140625 -4.34375 C 4.140625 -3.570312 4.421875 -2.945312 4.984375 -2.46875 C 5.554688 -2 6.363281 -1.765625 7.40625 -1.765625 Z M 7.40625 -1.765625 "/></g></g></g><g fill="#8f57ff" fill-opacity="1"><g transform="translate(148.35757, 291.902383)"><g><path d="M 2.0625 0 L 2.0625 -14.875 L 4.34375 -14.875 L 4.5 -12.203125 C 4.976562 -13.148438 5.664062 -13.890625 6.5625 -14.421875 C 7.46875 -14.960938 8.488281 -15.234375 9.625 -15.234375 C 11.382812 -15.234375 12.789062 -14.695312 13.84375 -13.625 C 14.894531 -12.5625 15.421875 -10.921875 15.421875 -8.703125 L 15.421875 0 L 12.90625 0 L 12.90625 -8.4375 C 12.90625 -11.53125 11.625 -13.078125 9.0625 -13.078125 C 7.78125 -13.078125 6.710938 -12.613281 5.859375 -11.6875 C 5.015625 -10.757812 4.59375 -9.429688 4.59375 -7.703125 L 4.59375 0 Z M 2.0625 0 "/></g></g></g><g fill="#8f57ff" fill-opacity="1"><g transform="translate(165.517549, 291.902383)"><g/></g></g><g fill="#8f57ff" fill-opacity="1"><g transform="translate(173.467542, 291.902383)"><g><path d="M 11.4375 0.359375 C 9.375 0.359375 7.597656 -0.09375 6.109375 -1 C 4.617188 -1.914062 3.460938 -3.1875 2.640625 -4.8125 C 1.816406 -6.445312 1.40625 -8.34375 1.40625 -10.5 C 1.40625 -12.632812 1.816406 -14.515625 2.640625 -16.140625 C 3.460938 -17.773438 4.617188 -19.050781 6.109375 -19.96875 C 7.597656 -20.894531 9.375 -21.359375 11.4375 -21.359375 C 13.832031 -21.359375 15.785156 -20.78125 17.296875 -19.625 C 18.804688 -18.476562 19.769531 -16.875 20.1875 -14.8125 L 17.40625 -14.8125 C 17.082031 -16.113281 16.425781 -17.160156 15.4375 -17.953125 C 14.445312 -18.742188 13.113281 -19.140625 11.4375 -19.140625 C 9.9375 -19.140625 8.625 -18.789062 7.5 -18.09375 C 6.375 -17.40625 5.503906 -16.414062 4.890625 -15.125 C 4.285156 -13.84375 3.984375 -12.300781 3.984375 -10.5 C 3.984375 -8.695312 4.285156 -7.148438 4.890625 -5.859375 C 5.503906 -4.578125 6.375 -3.585938 7.5 -2.890625 C 8.625 -2.203125 9.9375 -1.859375 11.4375 -1.859375 C 13.113281 -1.859375 14.445312 -2.242188 15.4375 -3.015625 C 16.425781 -3.785156 17.082031 -4.8125 17.40625 -6.09375 L 20.1875 -6.09375 C 19.769531 -4.070312 18.804688 -2.488281 17.296875 -1.34375 C 15.785156 -0.207031 13.832031 0.359375 11.4375 0.359375 Z M 11.4375 0.359375 "/></g></g></g><g fill="#8f57ff" fill-opacity="1"><g transform="translate(195.06752, 291.902383)"><g><path d="M 8.84375 0.359375 C 7.445312 0.359375 6.1875 0.0390625 5.0625 -0.59375 C 3.945312 -1.238281 3.0625 -2.144531 2.40625 -3.3125 C 1.757812 -4.476562 1.4375 -5.851562 1.4375 -7.4375 C 1.4375 -9.019531 1.765625 -10.394531 2.421875 -11.5625 C 3.085938 -12.726562 3.984375 -13.628906 5.109375 -14.265625 C 6.242188 -14.910156 7.507812 -15.234375 8.90625 -15.234375 C 10.3125 -15.234375 11.570312 -14.910156 12.6875 -14.265625 C 13.8125 -13.628906 14.695312 -12.726562 15.34375 -11.5625 C 15.988281 -10.394531 16.3125 -9.019531 16.3125 -7.4375 C 16.3125 -5.851562 15.984375 -4.476562 15.328125 -3.3125 C 14.671875 -2.144531 13.773438 -1.238281 12.640625 -0.59375 C 11.515625 0.0390625 10.25 0.359375 8.84375 0.359375 Z M 8.84375 -1.796875 C 9.707031 -1.796875 10.507812 -2.003906 11.25 -2.421875 C 11.988281 -2.847656 12.585938 -3.476562 13.046875 -4.3125 C 13.503906 -5.15625 13.734375 -6.195312 13.734375 -7.4375 C 13.734375 -8.675781 13.507812 -9.710938 13.0625 -10.546875 C 12.613281 -11.390625 12.019531 -12.019531 11.28125 -12.4375 C 10.539062 -12.863281 9.75 -13.078125 8.90625 -13.078125 C 8.050781 -13.078125 7.253906 -12.863281 6.515625 -12.4375 C 5.773438 -12.019531 5.171875 -11.390625 4.703125 -10.546875 C 4.242188 -9.710938 4.015625 -8.675781 4.015625 -7.4375 C 4.015625 -6.195312 4.242188 -5.15625 4.703125 -4.3125 C 5.171875 -3.476562 5.769531 -2.847656 6.5 -2.421875 C 7.226562 -2.003906 8.007812 -1.796875 8.84375 -1.796875 Z M 8.84375 -1.796875 "/></g></g></g><g fill="#8f57ff" fill-opacity="1"><g transform="translate(212.827502, 291.902383)"><g><path d="M 2.0625 0 L 2.0625 -14.875 L 4.34375 -14.875 L 4.5625 -12.03125 C 5.019531 -13.007812 5.71875 -13.785156 6.65625 -14.359375 C 7.59375 -14.941406 8.753906 -15.234375 10.140625 -15.234375 L 10.140625 -12.59375 L 9.453125 -12.59375 C 8.566406 -12.59375 7.753906 -12.4375 7.015625 -12.125 C 6.273438 -11.820312 5.6875 -11.300781 5.25 -10.5625 C 4.8125 -9.820312 4.59375 -8.800781 4.59375 -7.5 L 4.59375 0 Z M 2.0625 0 "/></g></g></g><g fill="#8f57ff" fill-opacity="1"><g transform="translate(223.717493, 291.902383)"><g><path d="M 8.8125 0.359375 C 7.332031 0.359375 6.035156 0.0195312 4.921875 -0.65625 C 3.816406 -1.34375 2.957031 -2.273438 2.34375 -3.453125 C 1.738281 -4.628906 1.4375 -5.96875 1.4375 -7.46875 C 1.4375 -8.96875 1.742188 -10.300781 2.359375 -11.46875 C 2.984375 -12.644531 3.84375 -13.566406 4.9375 -14.234375 C 6.039062 -14.898438 7.34375 -15.234375 8.84375 -15.234375 C 10.070312 -15.234375 11.15625 -14.984375 12.09375 -14.484375 C 13.03125 -13.984375 13.757812 -13.285156 14.28125 -12.390625 L 14.28125 -21.59375 L 16.796875 -21.59375 L 16.796875 0 L 14.515625 0 L 14.28125 -2.453125 C 13.800781 -1.734375 13.109375 -1.082031 12.203125 -0.5 C 11.304688 0.0703125 10.175781 0.359375 8.8125 0.359375 Z M 9.09375 -1.828125 C 10.09375 -1.828125 10.976562 -2.0625 11.75 -2.53125 C 12.519531 -3 13.117188 -3.65625 13.546875 -4.5 C 13.972656 -5.34375 14.1875 -6.320312 14.1875 -7.4375 C 14.1875 -8.5625 13.972656 -9.539062 13.546875 -10.375 C 13.117188 -11.21875 12.519531 -11.875 11.75 -12.34375 C 10.976562 -12.8125 10.09375 -13.046875 9.09375 -13.046875 C 8.113281 -13.046875 7.238281 -12.8125 6.46875 -12.34375 C 5.695312 -11.875 5.09375 -11.21875 4.65625 -10.375 C 4.226562 -9.539062 4.015625 -8.5625 4.015625 -7.4375 C 4.015625 -6.320312 4.226562 -5.34375 4.65625 -4.5 C 5.09375 -3.65625 5.695312 -3 6.46875 -2.53125 C 7.238281 -2.0625 8.113281 -1.828125 9.09375 -1.828125 Z M 9.09375 -1.828125 "/></g></g></g><g fill="#8f57ff" fill-opacity="1"><g transform="translate(242.557476, 291.902383)"><g><path d="M 8.84375 0.359375 C 7.445312 0.359375 6.1875 0.0390625 5.0625 -0.59375 C 3.945312 -1.238281 3.0625 -2.144531 2.40625 -3.3125 C 1.757812 -4.476562 1.4375 -5.851562 1.4375 -7.4375 C 1.4375 -9.019531 1.765625 -10.394531 2.421875 -11.5625 C 3.085938 -12.726562 3.984375 -13.628906 5.109375 -14.265625 C 6.242188 -14.910156 7.507812 -15.234375 8.90625 -15.234375 C 10.3125 -15.234375 11.570312 -14.910156 12.6875 -14.265625 C 13.8125 -13.628906 14.695312 -12.726562 15.34375 -11.5625 C 15.988281 -10.394531 16.3125 -9.019531 16.3125 -7.4375 C 16.3125 -5.851562 15.984375 -4.476562 15.328125 -3.3125 C 14.671875 -2.144531 13.773438 -1.238281 12.640625 -0.59375 C 11.515625 0.0390625 10.25 0.359375 8.84375 0.359375 Z M 8.84375 -1.796875 C 9.707031 -1.796875 10.507812 -2.003906 11.25 -2.421875 C 11.988281 -2.847656 12.585938 -3.476562 13.046875 -4.3125 C 13.503906 -5.15625 13.734375 -6.195312 13.734375 -7.4375 C 13.734375 -8.675781 13.507812 -9.710938 13.0625 -10.546875 C 12.613281 -11.390625 12.019531 -12.019531 11.28125 -12.4375 C 10.539062 -12.863281 9.75 -13.078125 8.90625 -13.078125 C 8.050781 -13.078125 7.253906 -12.863281 6.515625 -12.4375 C 5.773438 -12.019531 5.171875 -11.390625 4.703125 -10.546875 C 4.242188 -9.710938 4.015625 -8.675781 4.015625 -7.4375 C 4.015625 -6.195312 4.242188 -5.15625 4.703125 -4.3125 C 5.171875 -3.476562 5.769531 -2.847656 6.5 -2.421875 C 7.226562 -2.003906 8.007812 -1.796875 8.84375 -1.796875 Z M 8.84375 -1.796875 "/></g></g></g><g fill="#8f57ff" fill-opacity="1"><g transform="translate(260.317458, 291.902383)"><g><path d="M 6.359375 0 L 0.71875 -14.875 L 3.359375 -14.875 L 7.828125 -2.4375 L 12.328125 -14.875 L 14.90625 -14.875 L 9.265625 0 Z M 6.359375 0 "/></g></g></g><g fill="#8f57ff" fill-opacity="1"><g transform="translate(275.947443, 291.902383)"><g><path d="M 7.015625 0.359375 C 5.773438 0.359375 4.742188 0.148438 3.921875 -0.265625 C 3.109375 -0.691406 2.5 -1.253906 2.09375 -1.953125 C 1.695312 -2.648438 1.5 -3.410156 1.5 -4.234375 C 1.5 -5.753906 2.078125 -6.921875 3.234375 -7.734375 C 4.398438 -8.554688 5.984375 -8.96875 7.984375 -8.96875 L 12 -8.96875 L 12 -9.15625 C 12 -10.445312 11.65625 -11.425781 10.96875 -12.09375 C 10.289062 -12.769531 9.382812 -13.109375 8.25 -13.109375 C 7.269531 -13.109375 6.425781 -12.863281 5.71875 -12.375 C 5.007812 -11.882812 4.5625 -11.171875 4.375 -10.234375 L 1.796875 -10.234375 C 1.898438 -11.304688 2.265625 -12.210938 2.890625 -12.953125 C 3.523438 -13.691406 4.3125 -14.253906 5.25 -14.640625 C 6.1875 -15.035156 7.1875 -15.234375 8.25 -15.234375 C 10.332031 -15.234375 11.894531 -14.675781 12.9375 -13.5625 C 13.988281 -12.457031 14.515625 -10.988281 14.515625 -9.15625 L 14.515625 0 L 12.265625 0 L 12.125 -2.671875 C 11.695312 -1.828125 11.078125 -1.109375 10.265625 -0.515625 C 9.460938 0.0664062 8.378906 0.359375 7.015625 0.359375 Z M 7.40625 -1.765625 C 8.363281 -1.765625 9.1875 -2.015625 9.875 -2.515625 C 10.570312 -3.015625 11.097656 -3.664062 11.453125 -4.46875 C 11.816406 -5.269531 12 -6.109375 12 -6.984375 L 12 -7.015625 L 8.1875 -7.015625 C 6.707031 -7.015625 5.660156 -6.757812 5.046875 -6.25 C 4.441406 -5.738281 4.140625 -5.101562 4.140625 -4.34375 C 4.140625 -3.570312 4.421875 -2.945312 4.984375 -2.46875 C 5.554688 -2 6.363281 -1.765625 7.40625 -1.765625 Z M 7.40625 -1.765625 "/></g></g></g><g fill="#000000" fill-opacity="1"><g transform="translate(138.229522, 311.602362)"><g><path d="M 2.734375 0 L 0.328125 -9.09375 L 2.109375 -9.09375 L 3.75 -1.859375 L 5.671875 -9.09375 L 7.5 -9.09375 L 9.375 -1.859375 L 11.015625 -9.09375 L 12.8125 -9.09375 L 10.328125 0 L 8.359375 0 L 6.546875 -6.75 L 4.6875 0 Z M 2.734375 0 "/></g></g></g><g fill="#000000" fill-opacity="1"><g transform="translate(151.355494, 311.602362)"><g><path d="M 0.890625 0 L 0.890625 -9.09375 L 6.828125 -9.09375 L 6.828125 -7.765625 L 2.546875 -7.765625 L 2.546875 -5.265625 L 6.4375 -5.265625 L 6.4375 -3.96875 L 2.546875 -3.96875 L 2.546875 -1.34375 L 6.828125 -1.34375 L 6.828125 0 Z M 0.890625 0 "/></g></g></g><g fill="#000000" fill-opacity="1"><g transform="translate(158.867189, 311.602362)"><g><path d="M 0.890625 0 L 0.890625 -9.09375 L 4.53125 -9.09375 C 5.476562 -9.09375 6.203125 -8.875 6.703125 -8.4375 C 7.203125 -8 7.453125 -7.441406 7.453125 -6.765625 C 7.453125 -6.191406 7.296875 -5.734375 6.984375 -5.390625 C 6.679688 -5.046875 6.304688 -4.8125 5.859375 -4.6875 C 6.378906 -4.582031 6.804688 -4.320312 7.140625 -3.90625 C 7.484375 -3.5 7.65625 -3.023438 7.65625 -2.484375 C 7.65625 -1.765625 7.394531 -1.171875 6.875 -0.703125 C 6.351562 -0.234375 5.617188 0 4.671875 0 Z M 2.546875 -5.28125 L 4.296875 -5.28125 C 4.753906 -5.28125 5.109375 -5.382812 5.359375 -5.59375 C 5.617188 -5.8125 5.75 -6.125 5.75 -6.53125 C 5.75 -6.90625 5.625 -7.203125 5.375 -7.421875 C 5.125 -7.648438 4.753906 -7.765625 4.265625 -7.765625 L 2.546875 -7.765625 Z M 2.546875 -1.359375 L 4.40625 -1.359375 C 4.894531 -1.359375 5.273438 -1.472656 5.546875 -1.703125 C 5.828125 -1.929688 5.96875 -2.253906 5.96875 -2.671875 C 5.96875 -3.085938 5.820312 -3.414062 5.53125 -3.65625 C 5.25 -3.90625 4.863281 -4.03125 4.375 -4.03125 L 2.546875 -4.03125 Z M 2.546875 -1.359375 "/></g></g></g><g fill="#000000" fill-opacity="1"><g transform="translate(167.067681, 311.602362)"><g/></g></g><g fill="#000000" fill-opacity="1"><g transform="translate(170.160733, 311.602362)"><g><path d="M 0.890625 0 L 0.890625 -9.09375 L 3.984375 -9.09375 C 5.054688 -9.09375 5.9375 -8.90625 6.625 -8.53125 C 7.3125 -8.15625 7.820312 -7.625 8.15625 -6.9375 C 8.488281 -6.257812 8.65625 -5.460938 8.65625 -4.546875 C 8.65625 -3.628906 8.488281 -2.828125 8.15625 -2.140625 C 7.820312 -1.460938 7.3125 -0.9375 6.625 -0.5625 C 5.9375 -0.1875 5.054688 0 3.984375 0 Z M 2.546875 -1.4375 L 3.90625 -1.4375 C 4.675781 -1.4375 5.28125 -1.554688 5.71875 -1.796875 C 6.164062 -2.046875 6.484375 -2.398438 6.671875 -2.859375 C 6.859375 -3.328125 6.953125 -3.890625 6.953125 -4.546875 C 6.953125 -5.203125 6.859375 -5.757812 6.671875 -6.21875 C 6.484375 -6.6875 6.164062 -7.046875 5.71875 -7.296875 C 5.28125 -7.554688 4.675781 -7.6875 3.90625 -7.6875 L 2.546875 -7.6875 Z M 2.546875 -1.4375 "/></g></g></g><g fill="#000000" fill-opacity="1"><g transform="translate(179.400898, 311.602362)"><g><path d="M 0.890625 0 L 0.890625 -9.09375 L 6.828125 -9.09375 L 6.828125 -7.765625 L 2.546875 -7.765625 L 2.546875 -5.265625 L 6.4375 -5.265625 L 6.4375 -3.96875 L 2.546875 -3.96875 L 2.546875 -1.34375 L 6.828125 -1.34375 L 6.828125 0 Z M 0.890625 0 "/></g></g></g><g fill="#000000" fill-opacity="1"><g transform="translate(186.912594, 311.602362)"><g><path d="M 3.515625 0 L 0.1875 -9.09375 L 1.96875 -9.09375 L 4.546875 -1.703125 L 7.140625 -9.09375 L 8.890625 -9.09375 L 5.5625 0 Z M 3.515625 0 "/></g></g></g><g fill="#000000" fill-opacity="1"><g transform="translate(195.99681, 311.602362)"><g><path d="M 0.890625 0 L 0.890625 -9.09375 L 6.828125 -9.09375 L 6.828125 -7.765625 L 2.546875 -7.765625 L 2.546875 -5.265625 L 6.4375 -5.265625 L 6.4375 -3.96875 L 2.546875 -3.96875 L 2.546875 -1.34375 L 6.828125 -1.34375 L 6.828125 0 Z M 0.890625 0 "/></g></g></g><g fill="#000000" fill-opacity="1"><g transform="translate(203.508505, 311.602362)"><g><path d="M 0.890625 0 L 0.890625 -9.09375 L 2.546875 -9.09375 L 2.546875 -1.296875 L 6.578125 -1.296875 L 6.578125 0 Z M 0.890625 0 "/></g></g></g><g fill="#000000" fill-opacity="1"><g transform="translate(210.669314, 311.602362)"><g><path d="M 5.140625 0.15625 C 4.234375 0.15625 3.4375 -0.0390625 2.75 -0.4375 C 2.070312 -0.84375 1.539062 -1.394531 1.15625 -2.09375 C 0.769531 -2.800781 0.578125 -3.617188 0.578125 -4.546875 C 0.578125 -5.472656 0.769531 -6.289062 1.15625 -7 C 1.539062 -7.707031 2.070312 -8.257812 2.75 -8.65625 C 3.4375 -9.050781 4.234375 -9.25 5.140625 -9.25 C 6.046875 -9.25 6.835938 -9.050781 7.515625 -8.65625 C 8.203125 -8.257812 8.738281 -7.707031 9.125 -7 C 9.507812 -6.289062 9.703125 -5.472656 9.703125 -4.546875 C 9.703125 -3.617188 9.507812 -2.800781 9.125 -2.09375 C 8.738281 -1.394531 8.203125 -0.84375 7.515625 -0.4375 C 6.835938 -0.0390625 6.046875 0.15625 5.140625 0.15625 Z M 5.140625 -1.34375 C 6.015625 -1.34375 6.707031 -1.628906 7.21875 -2.203125 C 7.738281 -2.773438 8 -3.554688 8 -4.546875 C 8 -5.546875 7.738281 -6.332031 7.21875 -6.90625 C 6.707031 -7.476562 6.015625 -7.765625 5.140625 -7.765625 C 4.273438 -7.765625 3.582031 -7.476562 3.0625 -6.90625 C 2.539062 -6.332031 2.28125 -5.546875 2.28125 -4.546875 C 2.28125 -3.554688 2.539062 -2.773438 3.0625 -2.203125 C 3.582031 -1.628906 4.273438 -1.34375 5.140625 -1.34375 Z M 5.140625 -1.34375 "/></g></g></g><g fill="#000000" fill-opacity="1"><g transform="translate(220.949163, 311.602362)"><g><path d="M 0.890625 0 L 0.890625 -9.09375 L 4.25 -9.09375 C 4.976562 -9.09375 5.578125 -8.972656 6.046875 -8.734375 C 6.523438 -8.492188 6.878906 -8.160156 7.109375 -7.734375 C 7.347656 -7.304688 7.46875 -6.832031 7.46875 -6.3125 C 7.46875 -5.800781 7.351562 -5.335938 7.125 -4.921875 C 6.90625 -4.503906 6.554688 -4.164062 6.078125 -3.90625 C 5.609375 -3.644531 5 -3.515625 4.25 -3.515625 L 2.546875 -3.515625 L 2.546875 0 Z M 2.546875 -4.875 L 4.140625 -4.875 C 4.722656 -4.875 5.140625 -5 5.390625 -5.25 C 5.648438 -5.507812 5.78125 -5.863281 5.78125 -6.3125 C 5.78125 -6.757812 5.648438 -7.109375 5.390625 -7.359375 C 5.140625 -7.617188 4.722656 -7.75 4.140625 -7.75 L 2.546875 -7.75 Z M 2.546875 -4.875 "/></g></g></g><g fill="#000000" fill-opacity="1"><g transform="translate(228.837747, 311.602362)"><g><path d="M 0.890625 0 L 0.890625 -9.09375 L 6.828125 -9.09375 L 6.828125 -7.765625 L 2.546875 -7.765625 L 2.546875 -5.265625 L 6.4375 -5.265625 L 6.4375 -3.96875 L 2.546875 -3.96875 L 2.546875 -1.34375 L 6.828125 -1.34375 L 6.828125 0 Z M 0.890625 0 "/></g></g></g><g fill="#000000" fill-opacity="1"><g transform="translate(236.349442, 311.602362)"><g><path d="M 0.890625 0 L 0.890625 -9.09375 L 4.21875 -9.09375 C 4.945312 -9.09375 5.546875 -8.96875 6.015625 -8.71875 C 6.492188 -8.476562 6.847656 -8.144531 7.078125 -7.71875 C 7.316406 -7.300781 7.4375 -6.835938 7.4375 -6.328125 C 7.4375 -5.773438 7.289062 -5.269531 7 -4.8125 C 6.707031 -4.351562 6.253906 -4.019531 5.640625 -3.8125 L 7.53125 0 L 5.609375 0 L 3.921875 -3.59375 L 2.546875 -3.59375 L 2.546875 0 Z M 2.546875 -4.8125 L 4.125 -4.8125 C 4.675781 -4.8125 5.082031 -4.941406 5.34375 -5.203125 C 5.601562 -5.472656 5.734375 -5.832031 5.734375 -6.28125 C 5.734375 -6.707031 5.601562 -7.050781 5.34375 -7.3125 C 5.09375 -7.570312 4.679688 -7.703125 4.109375 -7.703125 L 2.546875 -7.703125 Z M 2.546875 -4.8125 "/></g></g></g></svg>