<svg xmlns="http://www.w3.org/2000/svg" xmlns:xlink="http://www.w3.org/1999/xlink" width="500" zoomAndPan="magnify" viewBox="0 0 375 374.999991" height="500" preserveAspectRatio="xMidYMid meet" version="1.0"><defs><g/><clipPath id="7168bd19bc"><path d="M 108.324219 84.695312 L 188 84.695312 L 188 224.195312 L 108.324219 224.195312 Z M 108.324219 84.695312 " clip-rule="nonzero"/></clipPath><clipPath id="b0b9cdb542"><path d="M 187 84.695312 L 266.574219 84.695312 L 266.574219 224.195312 L 187 224.195312 Z M 187 84.695312 " clip-rule="nonzero"/></clipPath></defs><g clip-path="url(#7168bd19bc)"><path fill="#231f20" d="M 158.601562 214.207031 C 155.296875 214.21875 152.238281 212.464844 150.574219 209.605469 L 121.339844 159.292969 C 119.679688 156.433594 119.664062 152.902344 121.308594 150.03125 L 150.1875 99.511719 C 151.832031 96.640625 154.878906 94.863281 158.179688 94.851562 L 187.28125 94.75 L 187.246094 84.816406 L 153.308594 84.933594 C 149.457031 84.945312 145.902344 87.019531 143.984375 90.371094 L 110.296875 149.296875 C 108.382812 152.648438 108.394531 156.765625 110.335938 160.101562 L 144.4375 218.789062 C 146.375 222.128906 149.945312 224.175781 153.796875 224.160156 L 187.734375 224.042969 L 187.699219 214.105469 L 158.601562 214.207031 " fill-opacity="1" fill-rule="nonzero"/></g><g clip-path="url(#b0b9cdb542)"><path fill="#fbc108" d="M 264.5625 148.753906 L 230.460938 90.066406 C 228.523438 86.730469 224.953125 84.679688 221.097656 84.695312 L 187.246094 84.816406 L 187.28125 94.75 L 216.296875 94.648438 C 219.601562 94.636719 222.660156 96.390625 224.320312 99.25 L 253.558594 149.5625 C 255.21875 152.421875 255.230469 155.953125 253.589844 158.828125 L 224.707031 209.34375 C 223.066406 212.214844 220.019531 213.992188 216.714844 214.003906 L 187.699219 214.105469 L 187.734375 224.042969 L 221.585938 223.921875 C 225.441406 223.910156 228.996094 221.835938 230.914062 218.488281 L 264.601562 159.558594 C 266.515625 156.210938 266.5 152.089844 264.5625 148.753906 " fill-opacity="1" fill-rule="nonzero"/></g><path fill="#fddd10" d="M 183.128906 185.300781 C 183.574219 186.371094 184.054688 187.40625 184.566406 188.335938 C 184.566406 188.335938 188.46875 186.082031 192.734375 188.183594 C 193.214844 187.234375 193.652344 186.1875 194.058594 185.097656 C 188.414062 181.824219 183.128906 185.300781 183.128906 185.300781 " fill-opacity="1" fill-rule="nonzero"/><path fill="#fddd10" d="M 180.761719 178.265625 C 181.066406 179.355469 181.421875 180.550781 181.828125 181.777344 C 183.683594 180.675781 188.902344 178.285156 195.246094 181.46875 C 195.625 180.171875 195.945312 178.910156 196.214844 177.769531 C 188.808594 174.117188 182.652344 177.125 180.761719 178.265625 " fill-opacity="1" fill-rule="nonzero"/><path fill="#fbc108" d="M 178.996094 145.386719 C 172.59375 141.164062 153.84375 129.316406 143.605469 128.34375 C 140.023438 128.003906 137.3125 131.539062 138.570312 134.914062 C 141.613281 143.09375 151.050781 159.964844 175.890625 153.484375 C 167.167969 155.757812 154.785156 159.53125 150.367188 168.324219 C 145.6875 177.644531 151.539062 177.945312 157.71875 176.203125 C 162.78125 174.773438 167.433594 172.128906 171.273438 168.527344 C 174.90625 165.121094 179.140625 160 181.066406 153.40625 C 181.160156 153.089844 181.261719 152.773438 181.375 152.464844 C 181.390625 152.417969 181.410156 152.371094 181.425781 152.316406 C 182.304688 149.734375 181.273438 146.886719 178.996094 145.386719 " fill-opacity="1" fill-rule="nonzero"/><path fill="#231f20" d="M 178.996094 145.386719 L 179.238281 145.019531 C 176.027344 142.902344 169.734375 138.878906 162.945312 135.257812 C 159.550781 133.445312 156.035156 131.738281 152.714844 130.414062 C 149.394531 129.09375 146.277344 128.15625 143.644531 127.90625 C 143.472656 127.890625 143.300781 127.882812 143.128906 127.882812 C 141.632812 127.882812 140.296875 128.503906 139.347656 129.476562 C 138.398438 130.453125 137.816406 131.78125 137.816406 133.203125 C 137.816406 133.816406 137.925781 134.445312 138.160156 135.066406 C 139.460938 138.558594 141.910156 143.621094 146.21875 147.828125 C 150.527344 152.035156 156.71875 155.375 165.398438 155.371094 C 168.585938 155.371094 172.109375 154.921875 176 153.90625 C 176.113281 153.878906 176.207031 153.804688 176.269531 153.703125 C 176.328125 153.605469 176.34375 153.484375 176.3125 153.371094 C 176.285156 153.261719 176.210938 153.164062 176.113281 153.105469 C 176.011719 153.046875 175.890625 153.027344 175.78125 153.058594 C 171.410156 154.199219 166.109375 155.71875 161.320312 158.066406 C 158.929688 159.242188 156.664062 160.625 154.710938 162.28125 C 152.757812 163.9375 151.113281 165.867188 149.976562 168.125 C 148.777344 170.519531 148.238281 172.351562 148.234375 173.78125 C 148.234375 174.429688 148.351562 175 148.578125 175.484375 C 148.914062 176.214844 149.511719 176.730469 150.230469 177.035156 C 150.953125 177.347656 151.800781 177.46875 152.730469 177.46875 C 154.269531 177.46875 156.042969 177.125 157.835938 176.625 C 162.96875 175.175781 167.683594 172.496094 171.570312 168.847656 C 175.238281 165.40625 179.527344 160.230469 181.484375 153.527344 C 181.574219 153.21875 181.675781 152.914062 181.785156 152.613281 C 181.800781 152.566406 181.820312 152.515625 181.839844 152.457031 C 182.066406 151.792969 182.171875 151.109375 182.171875 150.433594 C 182.171875 148.296875 181.089844 146.242188 179.238281 145.019531 L 178.757812 145.75 C 180.363281 146.808594 181.300781 148.59375 181.296875 150.433594 C 181.296875 151.015625 181.207031 151.601562 181.011719 152.175781 C 180.996094 152.226562 180.976562 152.269531 180.964844 152.316406 C 180.847656 152.632812 180.742188 152.957031 180.644531 153.28125 C 178.753906 159.765625 174.574219 164.832031 170.972656 168.207031 C 167.1875 171.761719 162.59375 174.371094 157.601562 175.777344 C 155.855469 176.273438 154.140625 176.59375 152.730469 176.59375 C 151.59375 176.59375 150.667969 176.382812 150.066406 175.949219 C 149.761719 175.730469 149.535156 175.460938 149.367188 175.113281 C 149.207031 174.765625 149.109375 174.328125 149.109375 173.78125 C 149.105469 172.578125 149.589844 170.847656 150.757812 168.519531 C 151.832031 166.382812 153.394531 164.546875 155.277344 162.949219 C 160.921875 158.15625 169.472656 155.605469 176 153.90625 C 176.113281 153.878906 176.207031 153.804688 176.269531 153.703125 C 176.328125 153.605469 176.34375 153.484375 176.3125 153.371094 C 176.285156 153.261719 176.210938 153.164062 176.113281 153.105469 C 176.011719 153.046875 175.890625 153.027344 175.78125 153.058594 C 171.953125 154.058594 168.503906 154.496094 165.398438 154.496094 C 156.949219 154.492188 151.011719 151.273438 146.828125 147.199219 C 142.652344 143.125 140.25 138.175781 138.976562 134.761719 C 138.78125 134.234375 138.691406 133.710938 138.691406 133.203125 C 138.691406 132.019531 139.175781 130.90625 139.972656 130.089844 C 140.773438 129.273438 141.875 128.757812 143.128906 128.757812 C 143.269531 128.757812 143.414062 128.765625 143.5625 128.777344 C 146.054688 129.015625 149.117188 129.921875 152.390625 131.230469 C 162.226562 135.144531 173.96875 142.589844 178.757812 145.75 L 178.996094 145.386719 " fill-opacity="1" fill-rule="nonzero"/><path fill="#231f20" d="M 194.039062 153.734375 C 193.949219 153.4375 193.855469 153.148438 193.753906 152.878906 L 193.691406 152.699219 C 192.652344 149.710938 193.703125 146.394531 196.234375 144.480469 C 194.167969 142.421875 191.320312 141.160156 188.179688 141.167969 C 185.019531 141.179688 182.167969 142.480469 180.113281 144.574219 C 182.628906 146.476562 183.679688 149.761719 182.667969 152.742188 L 182.609375 152.914062 C 182.507812 153.191406 182.414062 153.476562 182.324219 153.777344 C 182.191406 154.226562 182.050781 154.671875 181.898438 155.105469 C 183.824219 153.96875 186.003906 153.449219 188.140625 153.433594 L 188.21875 153.429688 C 190.347656 153.421875 192.527344 153.914062 194.460938 155.027344 C 194.3125 154.605469 194.171875 154.171875 194.039062 153.734375 " fill-opacity="1" fill-rule="nonzero"/><path fill="#fbc108" d="M 197.308594 145.320312 C 203.683594 141.054688 222.347656 129.074219 232.582031 128.03125 C 236.160156 127.664062 238.894531 131.179688 237.664062 134.566406 C 234.679688 142.765625 225.355469 159.703125 200.472656 153.394531 C 209.210938 155.609375 221.621094 159.292969 226.097656 168.054688 C 230.84375 177.34375 224.992188 177.6875 218.804688 175.984375 C 213.730469 174.59375 209.058594 171.980469 205.195312 168.40625 C 201.539062 165.027344 197.269531 159.933594 195.296875 153.355469 C 195.203125 153.039062 195.097656 152.726562 194.984375 152.417969 C 194.964844 152.371094 194.945312 152.324219 194.929688 152.269531 C 194.035156 149.691406 195.042969 146.839844 197.308594 145.320312 " fill-opacity="1" fill-rule="nonzero"/><path fill="#231f20" d="M 197.308594 145.320312 L 197.550781 145.6875 C 200.730469 143.554688 206.984375 139.5 213.707031 135.851562 C 217.066406 134.027344 220.546875 132.304688 223.8125 130.976562 C 227.078125 129.648438 230.136719 128.71875 232.625 128.464844 C 232.785156 128.449219 232.9375 128.441406 233.09375 128.441406 C 234.339844 128.441406 235.445312 128.957031 236.242188 129.773438 C 237.042969 130.589844 237.527344 131.703125 237.523438 132.886719 C 237.523438 133.386719 237.441406 133.898438 237.253906 134.414062 C 236 137.855469 233.617188 142.851562 229.429688 146.964844 C 227.335938 149.023438 224.796875 150.863281 221.714844 152.191406 C 218.632812 153.519531 215.007812 154.335938 210.738281 154.335938 C 207.691406 154.335938 204.316406 153.917969 200.578125 152.972656 C 200.347656 152.914062 200.105469 153.054688 200.046875 153.289062 C 199.988281 153.523438 200.132812 153.761719 200.363281 153.820312 C 204.726562 154.925781 209.988281 156.394531 214.691406 158.664062 C 217.046875 159.800781 219.261719 161.132812 221.152344 162.71875 C 223.046875 164.300781 224.621094 166.128906 225.707031 168.253906 C 226.90625 170.59375 227.398438 172.335938 227.394531 173.539062 C 227.394531 174.085938 227.296875 174.519531 227.132812 174.867188 C 226.882812 175.382812 226.484375 175.734375 225.910156 175.980469 C 225.335938 176.226562 224.589844 176.34375 223.726562 176.34375 C 222.328125 176.34375 220.640625 176.035156 218.917969 175.5625 C 213.914062 174.1875 209.304688 171.613281 205.492188 168.085938 C 201.867188 164.738281 197.65625 159.699219 195.714844 153.230469 C 195.617188 152.90625 195.511719 152.582031 195.390625 152.261719 C 195.375 152.222656 195.359375 152.175781 195.339844 152.125 C 195.140625 151.539062 195.042969 150.941406 195.042969 150.347656 C 195.042969 148.519531 195.964844 146.746094 197.550781 145.6875 L 197.308594 145.320312 L 197.066406 144.957031 C 195.234375 146.183594 194.167969 148.226562 194.167969 150.347656 C 194.167969 151.035156 194.28125 151.734375 194.515625 152.414062 C 194.535156 152.46875 194.554688 152.523438 194.574219 152.570312 C 194.683594 152.871094 194.785156 153.175781 194.878906 153.480469 C 196.886719 160.167969 201.207031 165.316406 204.898438 168.730469 C 208.8125 172.351562 213.546875 174.996094 218.6875 176.410156 C 220.457031 176.894531 222.203125 177.21875 223.726562 177.21875 C 224.976562 177.21875 226.085938 177.003906 226.929688 176.414062 C 227.351562 176.121094 227.691406 175.726562 227.921875 175.242188 C 228.152344 174.757812 228.269531 174.1875 228.269531 173.539062 C 228.265625 172.101562 227.714844 170.265625 226.488281 167.855469 C 225.335938 165.605469 223.679688 163.683594 221.714844 162.046875 C 215.816406 157.125 207.148438 154.640625 200.578125 152.972656 C 200.347656 152.914062 200.105469 153.054688 200.046875 153.289062 C 199.988281 153.523438 200.132812 153.761719 200.363281 153.820312 C 204.164062 154.785156 207.613281 155.210938 210.738281 155.210938 C 219.5 155.214844 225.726562 151.839844 230.042969 147.589844 C 234.363281 143.34375 236.792969 138.234375 238.074219 134.714844 C 238.296875 134.105469 238.402344 133.488281 238.402344 132.886719 C 238.398438 131.460938 237.820312 130.132812 236.867188 129.160156 C 235.917969 128.1875 234.585938 127.566406 233.09375 127.566406 C 232.910156 127.566406 232.722656 127.574219 232.535156 127.59375 C 229.910156 127.863281 226.796875 128.820312 223.484375 130.164062 C 213.558594 134.203125 201.859375 141.75 197.066406 144.957031 L 197.308594 145.320312 " fill-opacity="1" fill-rule="nonzero"/><path fill="#fddd10" d="M 196.871094 169.933594 C 196.871094 169.933594 192.820312 167.636719 188.714844 167.710938 C 188.585938 167.710938 188.460938 167.710938 188.335938 167.710938 C 188.242188 167.710938 188.148438 167.710938 188.054688 167.714844 C 187.875 167.71875 187.695312 167.730469 187.519531 167.742188 C 187.402344 167.75 187.289062 167.761719 187.175781 167.769531 C 187.097656 167.777344 187.023438 167.785156 186.945312 167.792969 L 186.886719 167.800781 C 186.84375 167.804688 186.804688 167.808594 186.765625 167.8125 C 186.703125 167.820312 186.636719 167.828125 186.578125 167.835938 L 186.496094 167.847656 L 186.484375 167.847656 C 186.203125 167.886719 185.929688 167.933594 185.664062 167.984375 L 185.65625 167.984375 L 185.644531 167.988281 C 185.597656 167.996094 185.554688 168.007812 185.511719 168.015625 C 185.414062 168.035156 185.3125 168.054688 185.210938 168.078125 L 185.183594 168.085938 L 185.167969 168.089844 L 185.105469 168.101562 L 185.074219 168.109375 C 185.027344 168.121094 184.96875 168.132812 184.898438 168.148438 L 184.894531 168.148438 C 184.859375 168.15625 184.824219 168.164062 184.78125 168.175781 L 184.765625 168.179688 C 184.703125 168.195312 184.628906 168.210938 184.554688 168.230469 L 184.507812 168.238281 L 184.421875 168.261719 C 184.371094 168.273438 184.320312 168.285156 184.269531 168.296875 L 184.214844 168.3125 C 184.128906 168.332031 184.035156 168.355469 183.9375 168.382812 L 183.925781 168.386719 C 183.890625 168.394531 183.851562 168.40625 183.816406 168.414062 C 183.75 168.429688 183.6875 168.449219 183.621094 168.464844 L 183.554688 168.480469 C 183.449219 168.511719 183.34375 168.539062 183.234375 168.570312 L 183.191406 168.582031 C 183.136719 168.597656 183.074219 168.613281 183.019531 168.632812 C 182.972656 168.644531 182.925781 168.65625 182.878906 168.671875 L 182.824219 168.6875 C 182.714844 168.71875 182.601562 168.753906 182.488281 168.789062 L 182.421875 168.8125 C 182.328125 168.839844 182.234375 168.867188 182.140625 168.898438 L 182.066406 168.921875 L 182.050781 168.929688 C 181.9375 168.964844 181.828125 169.003906 181.71875 169.039062 L 181.648438 169.066406 C 181.566406 169.09375 181.484375 169.125 181.402344 169.15625 L 181.320312 169.183594 L 181.253906 169.210938 L 181.238281 169.21875 C 181.144531 169.253906 181.046875 169.292969 180.953125 169.332031 L 180.921875 169.34375 C 180.828125 169.382812 180.738281 169.421875 180.652344 169.460938 L 180.625 169.472656 L 180.558594 169.503906 C 180.484375 169.539062 180.414062 169.574219 180.34375 169.609375 L 180.25 169.65625 C 180.191406 169.6875 180.140625 169.71875 180.085938 169.75 L 180.019531 169.785156 L 179.976562 169.8125 C 179.902344 169.859375 179.832031 169.90625 179.765625 169.953125 L 179.730469 169.984375 C 179.664062 170.03125 179.601562 170.082031 179.550781 170.132812 C 179.46875 171.039062 179.515625 172.046875 179.59375 172.867188 L 179.644531 173.265625 L 179.640625 173.265625 L 179.632812 173.277344 C 179.648438 173.394531 179.660156 173.5 179.671875 173.605469 L 179.675781 173.617188 C 179.714844 173.941406 179.75 174.191406 179.773438 174.335938 L 179.773438 174.339844 L 179.785156 174.410156 L 179.785156 174.414062 L 179.796875 174.472656 C 179.835938 174.445312 179.886719 174.414062 179.929688 174.386719 C 179.972656 174.363281 180.007812 174.339844 180.050781 174.3125 L 180.082031 174.292969 L 180.148438 174.253906 L 180.175781 174.238281 L 180.191406 174.226562 C 180.382812 174.113281 180.59375 173.996094 180.828125 173.867188 L 180.851562 173.859375 L 180.960938 173.796875 C 181.257812 173.644531 181.589844 173.480469 181.949219 173.320312 L 181.96875 173.3125 C 182.136719 173.238281 182.308594 173.167969 182.484375 173.09375 L 182.488281 173.09375 C 182.53125 173.078125 182.574219 173.058594 182.617188 173.042969 L 182.621094 173.042969 C 182.804688 172.96875 182.992188 172.898438 183.1875 172.828125 L 183.199219 172.824219 C 183.625 172.675781 184.085938 172.53125 184.570312 172.40625 L 184.625 172.390625 C 184.859375 172.328125 185.097656 172.273438 185.34375 172.21875 C 185.378906 172.214844 185.414062 172.207031 185.445312 172.199219 C 185.664062 172.15625 185.886719 172.113281 186.109375 172.078125 L 186.167969 172.070312 C 186.699219 171.984375 187.253906 171.921875 187.828125 171.886719 C 187.890625 171.882812 187.953125 171.878906 188.011719 171.878906 L 188.015625 171.878906 C 188.558594 171.851562 189.121094 171.855469 189.703125 171.886719 C 189.742188 171.890625 189.78125 171.890625 189.820312 171.894531 C 190.148438 171.914062 190.480469 171.941406 190.820312 171.984375 C 191.144531 172.027344 191.476562 172.082031 191.8125 172.144531 C 191.914062 172.164062 192.007812 172.179688 192.109375 172.199219 L 192.113281 172.199219 L 192.144531 172.207031 C 192.355469 172.25 192.566406 172.296875 192.777344 172.351562 L 192.78125 172.351562 C 193.042969 172.417969 193.3125 172.488281 193.578125 172.566406 L 193.667969 172.597656 C 193.894531 172.664062 194.117188 172.738281 194.347656 172.816406 L 194.382812 172.828125 C 194.414062 172.839844 194.441406 172.851562 194.472656 172.863281 L 194.542969 172.886719 C 194.710938 172.945312 194.882812 173.011719 195.050781 173.078125 C 195.105469 173.101562 195.15625 173.121094 195.210938 173.140625 C 195.242188 173.152344 195.273438 173.167969 195.304688 173.179688 C 195.339844 173.191406 195.371094 173.203125 195.402344 173.21875 C 195.683594 173.332031 195.960938 173.453125 196.242188 173.589844 L 196.25 173.589844 C 196.378906 173.652344 196.507812 173.71875 196.636719 173.785156 C 196.675781 173.804688 196.71875 173.824219 196.757812 173.84375 C 196.90625 172.136719 196.871094 169.933594 196.871094 169.933594 " fill-opacity="1" fill-rule="nonzero"/><path fill="#231f20" d="M 196.871094 170.496094 C 196.875 170.84375 196.871094 171.324219 196.859375 171.855469 C 196.851562 172.070312 196.84375 172.289062 196.835938 172.511719 C 196.832031 172.625 196.828125 172.734375 196.820312 172.847656 C 196.8125 173.074219 196.796875 173.300781 196.785156 173.519531 C 196.773438 173.628906 196.765625 173.738281 196.757812 173.84375 C 196.699219 173.816406 196.636719 173.785156 196.578125 173.753906 C 196.46875 173.699219 196.359375 173.644531 196.25 173.589844 L 196.242188 173.589844 C 196.164062 173.550781 196.085938 173.519531 196.003906 173.484375 C 195.804688 173.390625 195.601562 173.300781 195.402344 173.21875 C 195.371094 173.203125 195.339844 173.191406 195.304688 173.179688 C 195.273438 173.167969 195.242188 173.152344 195.210938 173.140625 C 195.15625 173.121094 195.105469 173.101562 195.050781 173.078125 C 194.902344 173.019531 194.753906 172.964844 194.605469 172.910156 L 194.542969 172.886719 L 194.457031 172.855469 L 194.382812 172.828125 L 194.324219 172.808594 L 194.304688 172.804688 C 194.242188 172.78125 194.1875 172.765625 194.128906 172.746094 C 193.972656 172.695312 193.820312 172.640625 193.667969 172.597656 L 193.578125 172.566406 C 193.3125 172.488281 193.042969 172.417969 192.78125 172.351562 L 192.777344 172.351562 C 192.566406 172.296875 192.355469 172.25 192.144531 172.207031 L 192.113281 172.199219 L 192.109375 172.199219 C 192.007812 172.179688 191.914062 172.164062 191.8125 172.144531 C 191.476562 172.082031 191.144531 172.027344 190.820312 171.984375 C 190.480469 171.941406 190.148438 171.914062 189.820312 171.894531 C 189.78125 171.890625 189.742188 171.890625 189.703125 171.886719 C 189.121094 171.855469 188.558594 171.851562 188.015625 171.878906 L 188.011719 171.878906 C 187.953125 171.878906 187.890625 171.882812 187.828125 171.886719 C 187.253906 171.921875 186.699219 171.984375 186.167969 172.070312 L 186.109375 172.078125 C 185.886719 172.113281 185.664062 172.15625 185.445312 172.199219 C 185.414062 172.207031 185.378906 172.214844 185.34375 172.21875 C 185.097656 172.273438 184.859375 172.328125 184.625 172.390625 L 184.578125 172.402344 L 184.570312 172.40625 C 184.339844 172.464844 184.113281 172.53125 183.894531 172.597656 L 183.84375 172.613281 C 183.621094 172.679688 183.40625 172.75 183.199219 172.824219 L 183.1875 172.828125 C 182.992188 172.898438 182.804688 172.96875 182.621094 173.042969 C 182.574219 173.058594 182.53125 173.078125 182.488281 173.09375 C 182.308594 173.167969 182.136719 173.238281 181.96875 173.3125 L 181.960938 173.316406 L 181.949219 173.320312 C 181.589844 173.480469 181.257812 173.644531 180.960938 173.796875 L 180.851562 173.859375 L 180.835938 173.863281 L 180.8125 173.875 C 180.585938 174 180.375 174.117188 180.191406 174.226562 L 180.175781 174.238281 L 180.148438 174.253906 L 180.082031 174.292969 L 180.050781 174.3125 C 180.007812 174.339844 179.972656 174.363281 179.929688 174.386719 L 179.90625 174.402344 C 179.871094 174.425781 179.828125 174.449219 179.796875 174.472656 C 179.796875 174.472656 179.792969 174.453125 179.785156 174.414062 L 179.785156 174.410156 L 179.773438 174.339844 L 179.773438 174.335938 C 179.769531 174.308594 179.765625 174.277344 179.761719 174.246094 L 179.757812 174.234375 L 179.746094 174.160156 L 179.734375 174.078125 L 179.726562 174.015625 C 179.71875 173.972656 179.714844 173.929688 179.707031 173.878906 L 179.699219 173.832031 C 179.695312 173.78125 179.6875 173.726562 179.679688 173.671875 L 179.675781 173.617188 L 179.671875 173.605469 C 179.660156 173.5 179.648438 173.394531 179.632812 173.277344 L 179.644531 173.265625 L 179.59375 172.867188 C 179.554688 172.457031 179.523438 172 179.511719 171.53125 C 179.5 171.0625 179.507812 170.585938 179.550781 170.132812 C 179.601562 170.082031 179.664062 170.03125 179.726562 169.984375 L 179.730469 169.984375 L 179.75 169.96875 L 179.765625 169.953125 C 179.832031 169.90625 179.902344 169.859375 179.976562 169.8125 L 180.019531 169.785156 C 180.09375 169.742188 180.167969 169.699219 180.246094 169.65625 L 180.25 169.65625 L 180.261719 169.648438 L 180.28125 169.640625 C 180.371094 169.59375 180.464844 169.546875 180.558594 169.503906 L 180.625 169.472656 C 180.71875 169.429688 180.820312 169.386719 180.921875 169.34375 L 180.957031 169.328125 C 181.054688 169.289062 181.152344 169.25 181.253906 169.210938 L 181.320312 169.183594 C 181.429688 169.144531 181.539062 169.105469 181.648438 169.066406 L 181.71875 169.039062 C 181.828125 169.003906 181.9375 168.964844 182.046875 168.929688 L 182.066406 168.921875 C 182.183594 168.882812 182.300781 168.847656 182.414062 168.8125 L 182.488281 168.789062 C 182.601562 168.753906 182.714844 168.71875 182.824219 168.6875 L 182.882812 168.671875 C 182.988281 168.640625 183.089844 168.609375 183.191406 168.582031 L 183.238281 168.570312 C 183.347656 168.539062 183.453125 168.507812 183.554688 168.480469 L 183.625 168.464844 C 183.726562 168.4375 183.828125 168.410156 183.925781 168.386719 L 183.945312 168.378906 C 184.039062 168.355469 184.125 168.335938 184.210938 168.3125 L 184.269531 168.296875 C 184.308594 168.289062 184.347656 168.28125 184.386719 168.269531 L 184.421875 168.261719 L 184.460938 168.25 L 184.507812 168.242188 L 184.558594 168.226562 C 184.628906 168.210938 184.695312 168.195312 184.753906 168.179688 L 184.765625 168.179688 L 184.78125 168.175781 C 184.824219 168.164062 184.859375 168.15625 184.894531 168.148438 L 184.898438 168.148438 C 184.96875 168.132812 185.027344 168.121094 185.074219 168.109375 L 185.105469 168.101562 L 185.125 168.097656 C 185.179688 168.085938 185.210938 168.078125 185.210938 168.078125 C 185.351562 168.046875 185.496094 168.015625 185.640625 167.988281 L 185.652344 167.984375 L 185.660156 167.984375 C 185.925781 167.933594 186.203125 167.886719 186.484375 167.847656 L 186.496094 167.847656 L 186.578125 167.835938 C 186.679688 167.820312 186.78125 167.808594 186.886719 167.800781 L 186.945312 167.792969 C 187.023438 167.785156 187.097656 167.777344 187.175781 167.769531 C 187.289062 167.761719 187.402344 167.75 187.519531 167.742188 C 187.695312 167.730469 187.875 167.71875 188.054688 167.714844 C 188.148438 167.710938 188.242188 167.710938 188.335938 167.710938 C 188.460938 167.710938 188.585938 167.710938 188.714844 167.710938 L 188.71875 167.710938 C 192.820312 167.640625 196.867188 169.929688 196.867188 169.933594 L 196.871094 169.933594 C 196.871094 169.933594 196.871094 170.070312 196.871094 170.304688 C 196.871094 170.363281 196.871094 170.425781 196.871094 170.496094 Z M 195.246094 181.46875 C 188.902344 178.285156 183.683594 180.675781 181.828125 181.777344 C 181.421875 180.550781 181.066406 179.355469 180.761719 178.265625 C 182.652344 177.125 188.808594 174.117188 196.214844 177.769531 C 195.945312 178.910156 195.625 180.171875 195.246094 181.46875 Z M 192.734375 188.183594 C 188.46875 186.082031 184.566406 188.335938 184.566406 188.335938 C 184.054688 187.40625 183.574219 186.371094 183.128906 185.300781 C 183.132812 185.300781 188.414062 181.824219 194.058594 185.097656 C 193.652344 186.1875 193.214844 187.234375 192.734375 188.183594 Z M 198.046875 162.351562 C 197.601562 160.558594 196.742188 158.882812 195.472656 157.539062 C 194.863281 156.890625 194.355469 156.511719 194.113281 156.347656 C 192.347656 155.222656 190.261719 154.691406 188.03125 154.734375 C 185.335938 154.785156 182.875 155.65625 180.980469 157.398438 C 180.257812 158.167969 179.503906 159.230469 178.882812 160.683594 C 178.882812 160.683594 174.886719 169.726562 180.347656 184.214844 C 182.492188 190.101562 185.511719 194.882812 188.773438 194.824219 C 191.761719 194.765625 194.398438 190.648438 196.304688 185.367188 C 196.335938 185.28125 196.363281 185.199219 196.394531 185.117188 C 196.976562 183.476562 197.484375 181.730469 197.914062 179.960938 L 197.914062 179.964844 C 198.265625 178.625 198.515625 177.320312 198.695312 176.058594 L 198.710938 175.980469 L 198.730469 175.835938 C 198.742188 175.761719 198.75 175.683594 198.761719 175.609375 L 198.804688 175.257812 L 198.800781 175.253906 C 199.480469 169.59375 198.671875 164.878906 198.046875 162.351562 " fill-opacity="1" fill-rule="nonzero"/><path fill="#231f20" d="M 195.90625 131.84375 L 195.878906 131.828125 L 195.863281 131.816406 C 194.589844 130.96875 192.949219 130.828125 191.589844 131.519531 C 190.261719 132.191406 189.429688 133.277344 189.429688 133.277344 C 189.75 132.308594 190.371094 131.660156 190.925781 131.25 C 191.136719 131.054688 191.394531 130.851562 191.707031 130.652344 C 191.125 130.207031 190.457031 129.867188 189.734375 129.660156 L 189.753906 129.578125 C 189.757812 129.515625 190.164062 123.113281 193.035156 120.757812 C 193.878906 120.0625 194.832031 119.800781 195.949219 119.957031 C 196.191406 119.996094 196.410156 119.824219 196.445312 119.585938 C 196.480469 119.34375 196.3125 119.121094 196.074219 119.089844 C 194.722656 118.898438 193.511719 119.230469 192.476562 120.078125 C 189.421875 122.585938 188.929688 128.8125 188.882812 129.480469 C 188.617188 129.441406 188.34375 129.417969 188.066406 129.421875 C 187.925781 129.421875 187.792969 129.429688 187.65625 129.441406 C 187.589844 128.59375 187.019531 122.550781 184 120.109375 C 182.960938 119.269531 181.75 118.945312 180.398438 119.144531 C 180.160156 119.179688 179.996094 119.402344 180.03125 119.640625 C 180.066406 119.882812 180.289062 120.054688 180.527344 120.011719 C 181.644531 119.847656 182.601562 120.101562 183.449219 120.789062 C 186.261719 123.0625 186.761719 129.183594 186.789062 129.570312 C 185.917969 129.765625 185.117188 130.152344 184.433594 130.683594 C 184.597656 130.742188 186.371094 131.410156 187 133.285156 C 187 133.285156 186.503906 132.648438 185.671875 132.050781 L 185.695312 132.089844 L 185.65625 132.039062 L 185.628906 132.019531 C 183.78125 130.71875 181.246094 130.964844 179.617188 132.535156 C 178.480469 133.625 177.777344 135.164062 177.78125 136.867188 C 177.789062 139.15625 179.082031 141.140625 180.96875 142.144531 C 183.011719 140.710938 185.496094 139.863281 188.175781 139.855469 C 190.855469 139.84375 193.34375 140.675781 195.398438 142.09375 C 197.28125 141.078125 198.554688 139.085938 198.546875 136.796875 C 198.539062 134.734375 197.492188 132.917969 195.90625 131.84375 " fill-opacity="1" fill-rule="nonzero"/><path fill="#231f20" d="M 197.207031 143.390625 C 196.789062 143.390625 196.417969 143.089844 196.34375 142.664062 C 196.261719 142.1875 196.578125 141.734375 197.054688 141.652344 C 199.527344 141.214844 201.058594 138.867188 201.617188 136.988281 C 202.09375 135.390625 202.164062 133.738281 202.238281 131.988281 C 202.269531 131.246094 202.304688 130.476562 202.371094 129.71875 C 202.667969 126.316406 203.714844 123.878906 205.574219 122.265625 C 205.9375 121.945312 206.492188 121.988281 206.808594 122.351562 C 207.125 122.71875 207.085938 123.273438 206.71875 123.589844 C 205.222656 124.890625 204.367188 126.945312 204.113281 129.871094 C 204.050781 130.589844 204.019531 131.335938 203.988281 132.0625 C 203.910156 133.84375 203.832031 135.683594 203.292969 137.492188 C 202.589844 139.847656 200.613281 142.800781 197.359375 143.375 C 197.308594 143.386719 197.257812 143.390625 197.207031 143.390625 " fill-opacity="1" fill-rule="nonzero"/><path fill="#231f20" d="M 207.019531 189.039062 C 206.785156 189.039062 206.550781 188.945312 206.378906 188.761719 C 204.695312 186.960938 203.90625 184.425781 203.964844 181.015625 C 203.976562 180.253906 204.023438 179.488281 204.070312 178.746094 C 204.179688 176.996094 204.28125 175.34375 203.972656 173.703125 C 203.609375 171.777344 202.332031 169.285156 199.917969 168.59375 C 199.453125 168.460938 199.183594 167.972656 199.316406 167.507812 C 199.449219 167.042969 199.933594 166.773438 200.398438 166.90625 C 203.578125 167.816406 205.234375 170.964844 205.691406 173.378906 C 206.039062 175.234375 205.925781 177.074219 205.816406 178.855469 C 205.773438 179.574219 205.726562 180.324219 205.714844 181.046875 C 205.664062 183.980469 206.300781 186.109375 207.65625 187.5625 C 207.984375 187.917969 207.96875 188.472656 207.613281 188.800781 C 207.445312 188.960938 207.230469 189.039062 207.019531 189.039062 " fill-opacity="1" fill-rule="nonzero"/><path fill="#231f20" d="M 169.730469 189.171875 C 169.515625 189.171875 169.300781 189.09375 169.132812 188.9375 C 168.777344 188.609375 168.757812 188.054688 169.082031 187.699219 C 170.429688 186.238281 171.046875 184.101562 170.976562 181.167969 C 170.960938 180.445312 170.910156 179.695312 170.859375 178.972656 C 170.738281 177.195312 170.609375 175.355469 170.945312 173.503906 C 171.382812 171.082031 173.023438 167.925781 176.195312 166.992188 C 176.65625 166.855469 177.144531 167.121094 177.28125 167.585938 C 177.417969 168.050781 177.152344 168.539062 176.6875 168.675781 C 174.28125 169.382812 173.019531 171.886719 172.667969 173.816406 C 172.371094 175.453125 172.484375 177.105469 172.605469 178.855469 C 172.65625 179.59375 172.710938 180.363281 172.726562 181.125 C 172.808594 184.535156 172.039062 187.074219 170.371094 188.886719 C 170.199219 189.074219 169.964844 189.167969 169.730469 189.171875 " fill-opacity="1" fill-rule="nonzero"/><path fill="#231f20" d="M 179.46875 143.628906 C 179.433594 143.628906 179.398438 143.625 179.367188 143.621094 C 176.082031 143.25 173.925781 140.425781 173.078125 138.117188 C 172.429688 136.347656 172.238281 134.511719 172.050781 132.738281 C 171.976562 132.019531 171.898438 131.277344 171.789062 130.558594 C 171.355469 127.65625 170.375 125.660156 168.796875 124.453125 C 168.414062 124.160156 168.34375 123.609375 168.632812 123.226562 C 168.929688 122.839844 169.476562 122.765625 169.863281 123.058594 C 171.816406 124.558594 173.015625 126.925781 173.519531 130.300781 C 173.632812 131.054688 173.714844 131.820312 173.792969 132.554688 C 173.972656 134.300781 174.144531 135.949219 174.71875 137.511719 C 175.394531 139.351562 177.070312 141.597656 179.5625 141.878906 C 180.042969 141.933594 180.386719 142.371094 180.335938 142.847656 C 180.285156 143.296875 179.90625 143.625 179.46875 143.628906 " fill-opacity="1" fill-rule="nonzero"/><g fill="#000000" fill-opacity="1"><g transform="translate(103.196874, 271.083366)"><g><path d="M 18.84375 -17.921875 L 7.9375 -17.921875 L 7.9375 -12.734375 L 17.984375 -12.734375 L 17.984375 -8.25 L 7.9375 -8.25 L 7.9375 0 L 2.234375 0 L 2.234375 -22.40625 L 18.84375 -22.40625 Z M 18.84375 -17.921875 "/></g></g></g><g fill="#000000" fill-opacity="1"><g transform="translate(123.32012, 271.083366)"><g><path d="M 7.9375 0 L 2.234375 0 L 2.234375 -22.40625 L 7.9375 -22.40625 Z M 7.9375 0 "/></g></g></g><g fill="#000000" fill-opacity="1"><g transform="translate(134.293622, 271.083366)"><g><path d="M 20.484375 -18.75 L 8.515625 -4.515625 L 20.671875 -4.515625 L 20.671875 0 L 0.890625 0 L 0.890625 -3.640625 L 12.890625 -17.890625 L 1.3125 -17.890625 L 1.3125 -22.40625 L 20.484375 -22.40625 Z M 20.484375 -18.75 "/></g></g></g><g fill="#000000" fill-opacity="1"><g transform="translate(156.688317, 271.083366)"><g><path d="M 20.484375 -18.75 L 8.515625 -4.515625 L 20.671875 -4.515625 L 20.671875 0 L 0.890625 0 L 0.890625 -3.640625 L 12.890625 -17.890625 L 1.3125 -17.890625 L 1.3125 -22.40625 L 20.484375 -22.40625 Z M 20.484375 -18.75 "/></g></g></g><g fill="#000000" fill-opacity="1"><g transform="translate(179.083008, 271.083366)"><g><path d="M 2.234375 -22.40625 L 12.828125 -22.40625 C 15.347656 -22.40625 17.347656 -21.894531 18.828125 -20.875 C 20.316406 -19.863281 21.0625 -18.503906 21.0625 -16.796875 C 21.0625 -15.628906 20.71875 -14.601562 20.03125 -13.71875 C 19.351562 -12.832031 18.414062 -12.21875 17.21875 -11.875 C 18.625 -11.59375 19.742188 -10.941406 20.578125 -9.921875 C 21.410156 -8.898438 21.828125 -7.660156 21.828125 -6.203125 C 21.828125 -4.304688 21.050781 -2.796875 19.5 -1.671875 C 17.957031 -0.554688 15.863281 0 13.21875 0 L 2.234375 0 Z M 7.90625 -18.046875 L 7.90625 -13.4375 L 12.515625 -13.4375 C 13.347656 -13.4375 14.007812 -13.644531 14.5 -14.0625 C 14.988281 -14.476562 15.234375 -15.050781 15.234375 -15.78125 C 15.234375 -16.476562 14.988281 -17.03125 14.5 -17.4375 C 14.007812 -17.84375 13.347656 -18.046875 12.515625 -18.046875 Z M 7.90625 -9.34375 L 7.90625 -4.390625 L 12.515625 -4.390625 C 13.578125 -4.390625 14.410156 -4.613281 15.015625 -5.0625 C 15.628906 -5.507812 15.9375 -6.125 15.9375 -6.90625 C 15.9375 -7.65625 15.628906 -8.25 15.015625 -8.6875 C 14.410156 -9.125 13.578125 -9.34375 12.515625 -9.34375 Z M 7.90625 -9.34375 "/></g></g></g><g fill="#000000" fill-opacity="1"><g transform="translate(202.757388, 271.083366)"><g><path d="M 22.40625 -22.40625 L 22.40625 -9.40625 C 22.40625 -6.4375 21.484375 -4.082031 19.640625 -2.34375 C 17.804688 -0.613281 15.320312 0.25 12.1875 0.25 C 9.03125 0.25 6.519531 -0.613281 4.65625 -2.34375 C 2.789062 -4.082031 1.859375 -6.4375 1.859375 -9.40625 L 1.859375 -22.40625 L 7.546875 -22.40625 L 7.546875 -9.40625 C 7.546875 -7.914062 7.976562 -6.726562 8.84375 -5.84375 C 9.707031 -4.957031 10.832031 -4.515625 12.21875 -4.515625 C 13.582031 -4.515625 14.675781 -4.953125 15.5 -5.828125 C 16.320312 -6.703125 16.734375 -7.894531 16.734375 -9.40625 L 16.734375 -22.40625 Z M 22.40625 -22.40625 "/></g></g></g><g fill="#000000" fill-opacity="1"><g transform="translate(227.807427, 271.083366)"><g><path d="M 20.484375 -18.75 L 8.515625 -4.515625 L 20.671875 -4.515625 L 20.671875 0 L 0.890625 0 L 0.890625 -3.640625 L 12.890625 -17.890625 L 1.3125 -17.890625 L 1.3125 -22.40625 L 20.484375 -22.40625 Z M 20.484375 -18.75 "/></g></g></g><g fill="#000000" fill-opacity="1"><g transform="translate(250.202118, 271.083366)"><g><path d="M 20.484375 -18.75 L 8.515625 -4.515625 L 20.671875 -4.515625 L 20.671875 0 L 0.890625 0 L 0.890625 -3.640625 L 12.890625 -17.890625 L 1.3125 -17.890625 L 1.3125 -22.40625 L 20.484375 -22.40625 Z M 20.484375 -18.75 "/></g></g></g><g fill="#000000" fill-opacity="1"><g transform="translate(88.30078, 292.63337)"><g><path d="M 8.15625 -2.375 L 2.859375 -2.375 L 1.859375 0 L 0.015625 0 L 4.65625 -10.5 L 6.46875 -10.5 L 11.0625 0 L 9.171875 0 Z M 7.484375 -3.9375 L 5.5 -8.609375 L 3.53125 -3.9375 Z M 7.484375 -3.9375 "/></g></g></g><g fill="#000000" fill-opacity="1"><g transform="translate(100.870764, 292.63337)"><g/></g></g><g fill="#000000" fill-opacity="1"><g transform="translate(106.240754, 292.63337)"><g><path d="M 6.03125 -10.546875 C 6.769531 -10.546875 7.488281 -10.398438 8.1875 -10.109375 C 8.894531 -9.828125 9.503906 -9.429688 10.015625 -8.921875 L 8.984375 -7.640625 C 8.609375 -8.046875 8.160156 -8.367188 7.640625 -8.609375 C 7.117188 -8.847656 6.59375 -8.96875 6.0625 -8.96875 C 5.007812 -8.96875 4.117188 -8.609375 3.390625 -7.890625 C 2.671875 -7.179688 2.3125 -6.3125 2.3125 -5.28125 C 2.3125 -4.238281 2.671875 -3.359375 3.390625 -2.640625 C 4.117188 -1.929688 5.007812 -1.578125 6.0625 -1.578125 C 7.144531 -1.578125 8.117188 -1.988281 8.984375 -2.8125 L 10.03125 -1.65625 C 9.488281 -1.125 8.859375 -0.703125 8.140625 -0.390625 C 7.421875 -0.078125 6.695312 0.078125 5.96875 0.078125 C 4.425781 0.078125 3.128906 -0.429688 2.078125 -1.453125 C 1.035156 -2.484375 0.515625 -3.753906 0.515625 -5.265625 C 0.515625 -6.753906 1.046875 -8.003906 2.109375 -9.015625 C 3.171875 -10.035156 4.476562 -10.546875 6.03125 -10.546875 Z M 6.03125 -10.546875 "/></g></g></g><g fill="#000000" fill-opacity="1"><g transform="translate(118.195744, 292.63337)"><g><path d="M 2.109375 -9.015625 C 3.179688 -10.035156 4.503906 -10.546875 6.078125 -10.546875 C 7.648438 -10.546875 8.96875 -10.035156 10.03125 -9.015625 C 11.101562 -8.003906 11.640625 -6.75 11.640625 -5.25 C 11.640625 -3.75 11.101562 -2.484375 10.03125 -1.453125 C 8.96875 -0.429688 7.648438 0.078125 6.078125 0.078125 C 4.503906 0.078125 3.179688 -0.429688 2.109375 -1.453125 C 1.046875 -2.484375 0.515625 -3.75 0.515625 -5.25 C 0.515625 -6.75 1.046875 -8.003906 2.109375 -9.015625 Z M 6.09375 -8.953125 C 5.050781 -8.953125 4.160156 -8.59375 3.421875 -7.875 C 2.679688 -7.164062 2.3125 -6.289062 2.3125 -5.25 C 2.3125 -4.207031 2.679688 -3.320312 3.421875 -2.59375 C 4.171875 -1.875 5.0625 -1.515625 6.09375 -1.515625 C 7.125 -1.515625 8.003906 -1.875 8.734375 -2.59375 C 9.460938 -3.320312 9.828125 -4.207031 9.828125 -5.25 C 9.828125 -6.289062 9.460938 -7.164062 8.734375 -7.875 C 8.003906 -8.59375 7.125 -8.953125 6.09375 -8.953125 Z M 6.09375 -8.953125 "/></g></g></g><g fill="#000000" fill-opacity="1"><g transform="translate(131.84573, 292.63337)"><g><path d="M 1.375 -10.5 L 5.6875 -10.5 C 7.257812 -10.5 8.554688 -10.003906 9.578125 -9.015625 C 10.597656 -8.023438 11.109375 -6.769531 11.109375 -5.25 C 11.109375 -3.726562 10.59375 -2.472656 9.5625 -1.484375 C 8.539062 -0.492188 7.234375 0 5.640625 0 L 1.375 0 Z M 3.15625 -8.90625 L 3.15625 -1.59375 L 5.734375 -1.59375 C 6.765625 -1.59375 7.617188 -1.929688 8.296875 -2.609375 C 8.984375 -3.296875 9.328125 -4.171875 9.328125 -5.234375 C 9.328125 -6.296875 8.972656 -7.171875 8.265625 -7.859375 C 7.566406 -8.554688 6.695312 -8.90625 5.65625 -8.90625 Z M 3.15625 -8.90625 "/></g></g></g><g fill="#000000" fill-opacity="1"><g transform="translate(144.970718, 292.63337)"><g><path d="M 3.15625 0 L 1.375 0 L 1.375 -10.5 L 3.15625 -10.5 Z M 3.15625 0 "/></g></g></g><g fill="#000000" fill-opacity="1"><g transform="translate(151.000712, 292.63337)"><g><path d="M 10.484375 0 L 8.75 0 L 3.15625 -7.53125 L 3.15625 0 L 1.375 0 L 1.375 -10.5 L 3.125 -10.5 L 8.75 -2.953125 L 8.75 -10.5 L 10.484375 -10.5 Z M 10.484375 0 "/></g></g></g><g fill="#000000" fill-opacity="1"><g transform="translate(164.380697, 292.63337)"><g><path d="M 8.5625 -5.15625 L 10.109375 -5.15625 L 10.109375 -1.296875 C 9.566406 -0.878906 8.925781 -0.546875 8.1875 -0.296875 C 7.457031 -0.046875 6.738281 0.078125 6.03125 0.078125 C 4.476562 0.078125 3.171875 -0.429688 2.109375 -1.453125 C 1.046875 -2.484375 0.515625 -3.75 0.515625 -5.25 C 0.515625 -6.75 1.050781 -8.003906 2.125 -9.015625 C 3.207031 -10.035156 4.546875 -10.546875 6.140625 -10.546875 C 6.878906 -10.546875 7.601562 -10.410156 8.3125 -10.140625 C 9.03125 -9.878906 9.648438 -9.523438 10.171875 -9.078125 L 9.171875 -7.765625 C 8.304688 -8.566406 7.296875 -8.96875 6.140625 -8.96875 C 5.066406 -8.96875 4.160156 -8.609375 3.421875 -7.890625 C 2.679688 -7.171875 2.3125 -6.289062 2.3125 -5.25 C 2.3125 -4.195312 2.679688 -3.3125 3.421875 -2.59375 C 4.171875 -1.875 5.082031 -1.515625 6.15625 -1.515625 C 6.957031 -1.515625 7.757812 -1.753906 8.5625 -2.234375 Z M 8.5625 -5.15625 "/></g></g></g><g fill="#000000" fill-opacity="1"><g transform="translate(177.115681, 292.63337)"><g/></g></g><g fill="#000000" fill-opacity="1"><g transform="translate(182.485672, 292.63337)"><g><path d="M 6.03125 -10.546875 C 6.769531 -10.546875 7.488281 -10.398438 8.1875 -10.109375 C 8.894531 -9.828125 9.503906 -9.429688 10.015625 -8.921875 L 8.984375 -7.640625 C 8.609375 -8.046875 8.160156 -8.367188 7.640625 -8.609375 C 7.117188 -8.847656 6.59375 -8.96875 6.0625 -8.96875 C 5.007812 -8.96875 4.117188 -8.609375 3.390625 -7.890625 C 2.671875 -7.179688 2.3125 -6.3125 2.3125 -5.28125 C 2.3125 -4.238281 2.671875 -3.359375 3.390625 -2.640625 C 4.117188 -1.929688 5.007812 -1.578125 6.0625 -1.578125 C 7.144531 -1.578125 8.117188 -1.988281 8.984375 -2.8125 L 10.03125 -1.65625 C 9.488281 -1.125 8.859375 -0.703125 8.140625 -0.390625 C 7.421875 -0.078125 6.695312 0.078125 5.96875 0.078125 C 4.425781 0.078125 3.128906 -0.429688 2.078125 -1.453125 C 1.035156 -2.484375 0.515625 -3.753906 0.515625 -5.265625 C 0.515625 -6.753906 1.046875 -8.003906 2.109375 -9.015625 C 3.171875 -10.035156 4.476562 -10.546875 6.03125 -10.546875 Z M 6.03125 -10.546875 "/></g></g></g><g fill="#000000" fill-opacity="1"><g transform="translate(194.440662, 292.63337)"><g><path d="M 10.484375 0 L 8.71875 0 L 8.71875 -4.34375 L 3.15625 -4.34375 L 3.15625 0 L 1.375 0 L 1.375 -10.5 L 3.15625 -10.5 L 3.15625 -5.9375 L 8.71875 -5.9375 L 8.71875 -10.5 L 10.484375 -10.5 Z M 10.484375 0 "/></g></g></g><g fill="#000000" fill-opacity="1"><g transform="translate(207.805655, 292.63337)"><g><path d="M 8.15625 -2.375 L 2.859375 -2.375 L 1.859375 0 L 0.015625 0 L 4.65625 -10.5 L 6.46875 -10.5 L 11.0625 0 L 9.171875 0 Z M 7.484375 -3.9375 L 5.5 -8.609375 L 3.53125 -3.9375 Z M 7.484375 -3.9375 "/></g></g></g><g fill="#000000" fill-opacity="1"><g transform="translate(220.375638, 292.63337)"><g><path d="M 3.15625 -1.609375 L 7.6875 -1.609375 L 7.6875 0 L 1.375 0 L 1.375 -10.5 L 3.15625 -10.5 Z M 3.15625 -1.609375 "/></g></g></g><g fill="#000000" fill-opacity="1"><g transform="translate(229.885632, 292.63337)"><g><path d="M 3.15625 -1.609375 L 7.6875 -1.609375 L 7.6875 0 L 1.375 0 L 1.375 -10.5 L 3.15625 -10.5 Z M 3.15625 -1.609375 "/></g></g></g><g fill="#000000" fill-opacity="1"><g transform="translate(239.395626, 292.63337)"><g><path d="M 8.875 -8.90625 L 3.15625 -8.90625 L 3.15625 -6.078125 L 8.28125 -6.078125 L 8.28125 -4.484375 L 3.15625 -4.484375 L 3.15625 -1.59375 L 9.0625 -1.59375 L 9.0625 0 L 1.375 0 L 1.375 -10.5 L 8.875 -10.5 Z M 8.875 -8.90625 "/></g></g></g><g fill="#000000" fill-opacity="1"><g transform="translate(250.735622, 292.63337)"><g><path d="M 10.484375 0 L 8.75 0 L 3.15625 -7.53125 L 3.15625 0 L 1.375 0 L 1.375 -10.5 L 3.125 -10.5 L 8.75 -2.953125 L 8.75 -10.5 L 10.484375 -10.5 Z M 10.484375 0 "/></g></g></g><g fill="#000000" fill-opacity="1"><g transform="translate(264.115607, 292.63337)"><g><path d="M 8.5625 -5.15625 L 10.109375 -5.15625 L 10.109375 -1.296875 C 9.566406 -0.878906 8.925781 -0.546875 8.1875 -0.296875 C 7.457031 -0.046875 6.738281 0.078125 6.03125 0.078125 C 4.476562 0.078125 3.171875 -0.429688 2.109375 -1.453125 C 1.046875 -2.484375 0.515625 -3.75 0.515625 -5.25 C 0.515625 -6.75 1.050781 -8.003906 2.125 -9.015625 C 3.207031 -10.035156 4.546875 -10.546875 6.140625 -10.546875 C 6.878906 -10.546875 7.601562 -10.410156 8.3125 -10.140625 C 9.03125 -9.878906 9.648438 -9.523438 10.171875 -9.078125 L 9.171875 -7.765625 C 8.304688 -8.566406 7.296875 -8.96875 6.140625 -8.96875 C 5.066406 -8.96875 4.160156 -8.609375 3.421875 -7.890625 C 2.679688 -7.171875 2.3125 -6.289062 2.3125 -5.25 C 2.3125 -4.195312 2.679688 -3.3125 3.421875 -2.59375 C 4.171875 -1.875 5.082031 -1.515625 6.15625 -1.515625 C 6.957031 -1.515625 7.757812 -1.753906 8.5625 -2.234375 Z M 8.5625 -5.15625 "/></g></g></g><g fill="#000000" fill-opacity="1"><g transform="translate(276.850591, 292.63337)"><g><path d="M 8.875 -8.90625 L 3.15625 -8.90625 L 3.15625 -6.078125 L 8.28125 -6.078125 L 8.28125 -4.484375 L 3.15625 -4.484375 L 3.15625 -1.59375 L 9.0625 -1.59375 L 9.0625 0 L 1.375 0 L 1.375 -10.5 L 8.875 -10.5 Z M 8.875 -8.90625 "/></g></g></g></svg>